<svg width="400" height="112" viewBox="0 0 400 112" fill="none" xmlns="http://www.w3.org/2000/svg">
<path d="M140.789 54.7227V57.2833C140.789 61.3901 140.232 65.0763 139.119 68.3419C138.006 71.6075 136.435 74.3907 134.406 76.6915C132.378 78.9675 129.953 80.7117 127.133 81.9239C124.337 83.1361 121.232 83.7423 117.818 83.7423C114.429 83.7423 111.324 83.1361 108.504 81.9239C105.708 80.7117 103.284 78.9675 101.23 76.6915C99.177 74.3907 97.5814 71.6075 96.4434 68.3419C95.33 65.0763 94.7734 61.3901 94.7734 57.2833V54.7227C94.7734 50.5913 95.33 46.9051 96.4434 43.6641C97.5566 40.3985 99.1276 37.6153 101.156 35.3145C103.21 33.0137 105.634 31.2573 108.43 30.0451C111.25 28.8327 114.355 28.2267 117.744 28.2267C121.158 28.2267 124.263 28.8327 127.059 30.0451C129.879 31.2573 132.303 33.0137 134.332 35.3145C136.385 37.6153 137.969 40.3985 139.082 43.6641C140.22 46.9051 140.789 50.5913 140.789 54.7227ZM129.545 57.2833V54.6485C129.545 51.7787 129.285 49.2553 128.766 47.0783C128.246 44.9011 127.479 43.0705 126.465 41.5861C125.451 40.1017 124.214 38.9883 122.754 38.2461C121.294 37.4793 119.624 37.0959 117.744 37.0959C115.864 37.0959 114.194 37.4793 112.734 38.2461C111.299 38.9883 110.075 40.1017 109.061 41.5861C108.071 43.0705 107.316 44.9011 106.797 47.0783C106.277 49.2553 106.018 51.7787 106.018 54.6485V57.2833C106.018 60.1283 106.277 62.6517 106.797 64.8537C107.316 67.0307 108.083 68.8737 109.098 70.3829C110.112 71.8673 111.349 72.9929 112.809 73.7599C114.268 74.5267 115.938 74.9103 117.818 74.9103C119.699 74.9103 121.368 74.5267 122.828 73.7599C124.288 72.9929 125.512 71.8673 126.502 70.3829C127.492 68.8737 128.246 67.0307 128.766 64.8537C129.285 62.6517 129.545 60.1283 129.545 57.2833ZM158.824 51.6055V83.0001H148.137V42.8477H158.193L158.824 51.6055ZM170.922 42.5879L170.736 52.4961C170.217 52.4219 169.586 52.3601 168.844 52.3107C168.126 52.2365 167.471 52.1993 166.877 52.1993C165.368 52.1993 164.057 52.3973 162.943 52.7931C161.855 53.1641 160.939 53.7209 160.197 54.4629C159.48 55.2051 158.936 56.1081 158.564 57.1719C158.218 58.2357 158.02 59.4481 157.971 60.8087L155.818 60.1407C155.818 57.5431 156.078 55.1557 156.598 52.9787C157.117 50.7767 157.872 48.8595 158.861 47.2267C159.876 45.5939 161.113 44.3321 162.572 43.4415C164.032 42.5509 165.702 42.1055 167.582 42.1055C168.176 42.1055 168.782 42.1551 169.4 42.2541C170.019 42.3283 170.526 42.4395 170.922 42.5879ZM200.646 42.8477H210.332V81.6641C210.332 85.3257 209.516 88.4305 207.882 90.9787C206.274 93.5515 204.024 95.4935 201.128 96.8047C198.234 98.1407 194.87 98.8087 191.035 98.8087C189.353 98.8087 187.572 98.5861 185.691 98.1407C183.836 97.6955 182.055 97.0027 180.348 96.0625C178.665 95.1225 177.255 93.9349 176.117 92.5001L180.83 86.1915C182.067 87.6265 183.502 88.7397 185.135 89.5313C186.768 90.3477 188.574 90.7559 190.553 90.7559C192.482 90.7559 194.115 90.3973 195.451 89.6797C196.787 88.9871 197.814 87.9603 198.531 86.5997C199.249 85.2637 199.607 83.6433 199.607 81.7383V52.1251L200.646 42.8477ZM173.631 63.4063V62.6271C173.631 59.5593 174.002 56.7761 174.744 54.2775C175.511 51.7541 176.587 49.5893 177.973 47.7833C179.383 45.9773 181.09 44.5795 183.094 43.5899C185.098 42.6003 187.361 42.1055 189.885 42.1055C192.557 42.1055 194.796 42.6003 196.602 43.5899C198.408 44.5795 199.892 45.9897 201.054 47.8205C202.218 49.6265 203.12 51.7663 203.764 54.2403C204.432 56.6895 204.952 59.3737 205.322 62.2931V64.0001C204.952 66.7957 204.394 69.3933 203.652 71.7931C202.91 74.1929 201.932 76.2957 200.72 78.1017C199.508 79.8829 197.999 81.2683 196.193 82.2579C194.412 83.2475 192.285 83.7423 189.811 83.7423C187.337 83.7423 185.098 83.2351 183.094 82.2209C181.115 81.2065 179.42 79.7839 178.01 77.9533C176.6 76.1225 175.511 73.9701 174.744 71.4961C174.002 69.0223 173.631 66.3257 173.631 63.4063ZM184.318 62.6271V63.4063C184.318 65.0639 184.479 66.6101 184.801 68.0451C185.122 69.4799 185.617 70.7541 186.285 71.8673C186.978 72.9559 187.831 73.8093 188.846 74.4279C189.885 75.0215 191.109 75.3185 192.52 75.3185C194.474 75.3185 196.07 74.9103 197.307 74.0939C198.544 73.2527 199.471 72.1023 200.09 70.6427C200.708 69.1831 201.068 67.5007 201.166 65.5959V60.7345C201.116 59.1759 200.906 57.7781 200.536 56.5411C200.164 55.2793 199.645 54.2033 198.977 53.3125C198.309 52.4219 197.443 51.7293 196.379 51.2345C195.315 50.7397 194.053 50.4923 192.594 50.4923C191.184 50.4923 189.959 50.8139 188.92 51.4571C187.906 52.0757 187.052 52.9291 186.359 54.0177C185.691 55.1063 185.184 56.3927 184.838 57.8771C184.492 59.3367 184.318 60.9201 184.318 62.6271ZM240.316 73.9455V56.0587C240.316 54.7723 240.106 53.6713 239.686 52.7559C239.264 51.8159 238.61 51.0861 237.718 50.5665C236.852 50.0469 235.728 49.7873 234.342 49.7873C233.154 49.7873 232.128 49.9975 231.262 50.4181C230.396 50.8139 229.728 51.3953 229.258 52.1623C228.788 52.9043 228.552 53.7827 228.552 54.7969H217.866C217.866 53.0899 218.262 51.4695 219.052 49.9357C219.844 48.4017 220.994 47.0535 222.504 45.8907C224.014 44.7033 225.806 43.7755 227.884 43.1075C229.988 42.4395 232.338 42.1055 234.936 42.1055C238.052 42.1055 240.824 42.6251 243.248 43.6641C245.672 44.7033 247.578 46.2619 248.962 48.3399C250.374 50.4181 251.078 53.0157 251.078 56.1329V73.3145C251.078 75.5163 251.214 77.3223 251.486 78.7325C251.758 80.1179 252.154 81.3301 252.674 82.3693V83.0001H241.876C241.356 81.9115 240.96 80.5509 240.688 78.9181C240.44 77.2605 240.316 75.6029 240.316 73.9455ZM241.726 58.5451L241.8 64.5939H235.826C234.416 64.5939 233.192 64.7547 232.152 65.0763C231.114 65.3979 230.26 65.8555 229.592 66.4493C228.924 67.0183 228.43 67.6863 228.108 68.4533C227.81 69.2201 227.662 70.0613 227.662 70.9767C227.662 71.8921 227.872 72.7209 228.292 73.4629C228.714 74.1805 229.32 74.7495 230.112 75.1701C230.902 75.5659 231.83 75.7637 232.894 75.7637C234.502 75.7637 235.9 75.4421 237.088 74.7989C238.276 74.1557 239.19 73.3641 239.834 72.4239C240.502 71.4839 240.848 70.5931 240.874 69.7521L243.694 74.2793C243.298 75.2937 242.754 76.3451 242.06 77.4337C241.392 78.5223 240.54 79.5489 239.5 80.5137C238.46 81.4539 237.212 82.2331 235.752 82.8517C234.292 83.4455 232.56 83.7423 230.556 83.7423C228.008 83.7423 225.696 83.2351 223.618 82.2209C221.564 81.1817 219.93 79.7593 218.718 77.9533C217.532 76.1225 216.938 74.0443 216.938 71.7189C216.938 69.6159 217.334 67.7481 218.124 66.1153C218.916 64.4825 220.08 63.1095 221.614 61.9961C223.172 60.8581 225.114 60.0047 227.44 59.4357C229.764 58.8419 232.462 58.5451 235.53 58.5451H241.726ZM269.782 51.4201V83.0001H259.094V42.8477H269.114L269.782 51.4201ZM268.222 61.5137H265.328C265.328 58.5451 265.712 55.8731 266.478 53.4981C267.246 51.0985 268.322 49.0573 269.708 47.3751C271.092 45.6681 272.738 44.3693 274.642 43.4787C276.572 42.5633 278.724 42.1055 281.1 42.1055C282.98 42.1055 284.7 42.3777 286.258 42.9219C287.816 43.4663 289.152 44.3321 290.266 45.5197C291.404 46.7071 292.27 48.2781 292.864 50.2325C293.482 52.1869 293.792 54.5743 293.792 57.3947V83.0001H283.03V57.3575C283.03 55.5763 282.782 54.1909 282.288 53.2013C281.792 52.2117 281.062 51.5189 280.098 51.1231C279.158 50.7025 277.994 50.4923 276.61 50.4923C275.174 50.4923 273.926 50.7767 272.862 51.3459C271.822 51.9149 270.956 52.7065 270.264 53.7209C269.596 54.7103 269.088 55.8731 268.742 57.2091C268.396 58.5451 268.222 59.9799 268.222 61.5137ZM313.2 42.8477V83.0001H302.474V42.8477H313.2ZM301.806 32.3829C301.806 30.8243 302.35 29.5379 303.44 28.5235C304.528 27.5093 305.988 27.0021 307.818 27.0021C309.624 27.0021 311.072 27.5093 312.16 28.5235C313.274 29.5379 313.83 30.8243 313.83 32.3829C313.83 33.9415 313.274 35.2279 312.16 36.2423C311.072 37.2567 309.624 37.7637 307.818 37.7637C305.988 37.7637 304.528 37.2567 303.44 36.2423C302.35 35.2279 301.806 33.9415 301.806 32.3829ZM338.62 75.3927C339.93 75.3927 341.094 75.1453 342.108 74.6505C343.122 74.1309 343.914 73.4135 344.482 72.4981C345.076 71.5581 345.386 70.4571 345.41 69.1955H355.466C355.442 72.0157 354.688 74.5267 353.204 76.7287C351.718 78.9057 349.728 80.6251 347.228 81.8869C344.73 83.1237 341.934 83.7423 338.842 83.7423C335.724 83.7423 333.004 83.2227 330.678 82.1837C328.376 81.1447 326.46 79.7097 324.926 77.8791C323.392 76.0235 322.242 73.8711 321.474 71.4219C320.708 68.9481 320.324 66.3009 320.324 63.4805V62.4043C320.324 59.5593 320.708 56.9123 321.474 54.4629C322.242 51.9891 323.392 49.8367 324.926 48.0059C326.46 46.1505 328.376 44.7033 330.678 43.6641C332.978 42.6251 335.676 42.1055 338.768 42.1055C342.058 42.1055 344.94 42.7365 347.414 43.9981C349.912 45.2599 351.868 47.0659 353.278 49.4161C354.712 51.7417 355.442 54.5001 355.466 57.6915H345.41C345.386 56.3555 345.1 55.1433 344.556 54.0547C344.038 52.9663 343.27 52.1003 342.256 51.4571C341.266 50.7891 340.042 50.4551 338.582 50.4551C337.024 50.4551 335.75 50.7891 334.76 51.4571C333.77 52.1003 333.004 52.9909 332.458 54.1291C331.914 55.2423 331.532 56.5163 331.308 57.9513C331.11 59.3615 331.012 60.8459 331.012 62.4043V63.4805C331.012 65.0391 331.11 66.5359 331.308 67.9709C331.506 69.4057 331.878 70.6797 332.422 71.7931C332.99 72.9063 333.77 73.7847 334.76 74.4279C335.75 75.0711 337.036 75.3927 338.62 75.3927ZM372.352 25.9629V83.0001H361.664V25.9629H372.352ZM397.66 42.8477L380.218 62.7383L370.868 72.2013L366.97 64.4825L374.392 55.0567L384.82 42.8477H397.66ZM386.564 83.0001L374.69 64.4455L382.074 57.9883L398.884 83.0001H386.564Z" fill="#FCFCFC"/>
<path d="M3.70312 84.1368H38.5838H73.4644" stroke="#FCFCFC" stroke-width="2" stroke-miterlimit="10"/>
<path d="M11.582 97H38.582H65.582" stroke="#FCFCFC" stroke-width="2" stroke-miterlimit="10"/>
<path d="M37.582 3V17V31" stroke="#FCFCFC" stroke-width="2" stroke-miterlimit="10"/>
<path d="M37.7305 29.5684V82.4316" stroke="#FCFCFC" stroke-width="2" stroke-miterlimit="10"/>
<path d="M59.8499 9.10547L37.7305 31.2738" stroke="#FCFCFC" stroke-width="2" stroke-miterlimit="10"/>
<path d="M68.3575 17.6318L37.7305 48.3266" stroke="#FCFCFC" stroke-width="2" stroke-miterlimit="10"/>
<path d="M73.4619 31.2734L37.7305 65.3786" stroke="#FCFCFC" stroke-width="2" stroke-miterlimit="10"/>
<path d="M75.1635 46.6211L37.7305 84.1369" stroke="#FCFCFC" stroke-width="2" stroke-miterlimit="10"/>
<path d="M75.1641 63.6738L54.7461 84.137" stroke="#FCFCFC" stroke-width="2" stroke-miterlimit="10"/>
<path d="M2 63.6738L22.418 84.137" stroke="#FCFCFC" stroke-width="2" stroke-miterlimit="10"/>
<path d="M17.3125 9.10547L37.7304 31.2738" stroke="#FCFCFC" stroke-width="2" stroke-miterlimit="10"/>
<path d="M8.80469 17.6318L37.73 48.3266" stroke="#FCFCFC" stroke-width="2" stroke-miterlimit="10"/>
<path d="M3.70312 29.5684L37.733 65.3788" stroke="#FCFCFC" stroke-width="2" stroke-miterlimit="10"/>
<path d="M2 44.916L37.7314 82.4318" stroke="#FCFCFC" stroke-width="2" stroke-miterlimit="10"/>
<path d="M38.582 109.716C18.3804 109.716 2 92.8112 2 71.9544V40.0454C2 19.1926 18.3804 2.28418 38.582 2.28418C58.7874 2.28418 75.1642 19.1926 75.1642 40.0454V71.9544C75.1678 92.8112 58.7874 109.716 38.582 109.716Z" stroke="#FCFCFC" stroke-width="2" stroke-miterlimit="10"/>
</svg>
