<svg width="400" height="78" viewBox="0 0 400 78" fill="none" xmlns="http://www.w3.org/2000/svg">
<path d="M143.001 22.1661L134.551 56.8944H123.951L118.301 33.6603L112.601 56.8944H102.001L93.5508 22.1661H102.851L107.401 47.3159L113.601 22.1661H122.951L129.151 47.3159L133.751 22.1661H143.001ZM165.19 29.1904C168.39 29.1904 170.923 30.2382 172.79 32.3341C174.69 34.43 175.64 37.3116 175.64 40.9793V56.8944H167.09V41.9617C167.09 40.1279 166.59 38.7034 165.59 37.6882C164.623 36.6404 163.323 36.1164 161.69 36.1164C159.957 36.1164 158.573 36.6567 157.54 37.7373C156.54 38.818 156.04 40.357 156.04 42.3547V56.8944H147.49V20.5451H156.04V34.4954C156.84 32.8581 158.023 31.5645 159.59 30.6149C161.19 29.6653 163.057 29.1904 165.19 29.1904ZM180.479 21.7731C180.479 20.496 180.946 19.4481 181.879 18.6294C182.812 17.778 184.046 17.3523 185.579 17.3523C187.112 17.3523 188.346 17.778 189.279 18.6294C190.212 19.4481 190.679 20.496 190.679 21.7731C190.679 23.0175 190.212 24.0655 189.279 24.9169C188.346 25.7356 187.112 26.1449 185.579 26.1449C184.046 26.1449 182.812 25.7356 181.879 24.9169C180.946 24.0655 180.479 23.0175 180.479 21.7731ZM189.829 29.4851V56.8944H181.279V29.4851H189.829ZM211.533 49.6736V56.8944H207.683C204.415 56.8944 201.865 56.1084 200.033 54.5366C198.232 52.9319 197.332 50.2959 197.332 46.6282V36.5584H193.582V29.4851H197.332V22.7556H205.883V29.4851H211.483V36.5584H205.883V46.7755C205.883 47.8562 206.099 48.6093 206.533 49.0351C206.999 49.4609 207.765 49.6736 208.833 49.6736H211.533ZM242.837 42.4529C242.837 43.1406 242.755 43.8937 242.587 44.7125H223.237C223.337 46.7755 223.871 48.2655 224.837 49.1824C225.805 50.0666 227.037 50.5087 228.537 50.5087C229.805 50.5087 230.855 50.1977 231.687 49.5754C232.521 48.9531 233.071 48.1509 233.337 47.1685H242.387C242.021 49.1005 241.221 50.8362 239.987 52.3753C238.755 53.8817 237.187 55.0769 235.287 55.9611C233.387 56.8124 231.271 57.2382 228.937 57.2382C226.205 57.2382 223.771 56.6816 221.637 55.5681C219.537 54.422 217.887 52.7846 216.687 50.6561C215.487 48.5276 214.887 46.0387 214.887 43.1897C214.887 40.3079 215.471 37.8193 216.637 35.7234C217.837 33.5949 219.505 31.9739 221.637 30.8605C223.771 29.7144 226.205 29.1412 228.937 29.1412C231.705 29.1412 234.137 29.6979 236.237 30.8113C238.337 31.9248 239.955 33.4967 241.087 35.5269C242.255 37.5246 242.837 39.8332 242.837 42.4529ZM234.187 41.1758C234.221 39.3746 233.721 38.0321 232.687 37.1479C231.687 36.2309 230.437 35.7725 228.937 35.7725C227.371 35.7725 226.071 36.2309 225.037 37.1479C224.005 38.0649 223.421 39.4074 223.287 41.1758H234.187ZM263.445 21.8223C267.945 21.8223 271.661 22.9849 274.595 25.3098C277.561 27.6348 279.479 30.7785 280.345 34.741H271.295C270.629 33.1363 269.595 31.8757 268.195 30.9587C266.829 30.0417 265.195 29.5833 263.295 29.5833C260.795 29.5833 258.779 30.4838 257.245 32.285C255.711 34.0861 254.945 36.493 254.945 39.5057C254.945 42.5183 255.711 44.9253 257.245 46.7264C258.779 48.4948 260.795 49.3789 263.295 49.3789C265.195 49.3789 266.829 48.9205 268.195 48.0035C269.595 47.0866 270.629 45.8422 271.295 44.2704H280.345C279.479 48.2 277.561 51.3438 274.595 53.7015C271.661 56.0265 267.945 57.1891 263.445 57.1891C260.011 57.1891 256.995 56.4523 254.395 54.9787C251.795 53.4722 249.779 51.3766 248.345 48.6912C246.945 46.0059 246.245 42.9441 246.245 39.5057C246.245 36.0672 246.945 33.0055 248.345 30.3201C249.779 27.6348 251.795 25.5554 254.395 24.0818C256.995 22.5754 260.011 21.8223 263.445 21.8223ZM298.187 29.1412C300.953 29.1412 303.419 29.7144 305.587 30.8605C307.787 31.9739 309.503 33.5949 310.737 35.7234C312.003 37.8519 312.637 40.3407 312.637 43.1897C312.637 46.0387 312.003 48.5276 310.737 50.6561C309.503 52.7846 307.787 54.422 305.587 55.5681C303.419 56.6816 300.953 57.2382 298.187 57.2382C295.419 57.2382 292.937 56.6816 290.737 55.5681C288.537 54.422 286.803 52.7846 285.537 50.6561C284.303 48.5276 283.687 46.0387 283.687 43.1897C283.687 40.3407 284.303 37.8519 285.537 35.7234C286.803 33.5949 288.537 31.9739 290.737 30.8605C292.937 29.7144 295.419 29.1412 298.187 29.1412ZM298.187 36.4111C296.553 36.4111 295.169 37.0005 294.037 38.1794C292.937 39.3255 292.387 40.9956 292.387 43.1897C292.387 45.3838 292.937 47.054 294.037 48.2C295.169 49.3461 296.553 49.9193 298.187 49.9193C299.819 49.9193 301.187 49.3461 302.287 48.2C303.387 47.054 303.937 45.3838 303.937 43.1897C303.937 40.9956 303.387 39.3255 302.287 38.1794C301.187 37.0005 299.819 36.4111 298.187 36.4111ZM356.577 29.1412C358.709 29.1412 360.543 29.6161 362.077 30.5657C363.609 31.5153 364.743 32.809 365.477 34.4463V29.4851H373.977V56.8944H365.477V51.9332C364.743 53.5705 363.609 54.8641 362.077 55.8137C360.543 56.7633 358.709 57.2382 356.577 57.2382C354.277 57.2382 352.209 56.6816 350.377 55.5681C348.577 54.422 347.143 52.7846 346.077 50.6561C345.043 48.5276 344.527 46.0387 344.527 43.1897C344.527 40.3079 345.043 37.8193 346.077 35.7234C347.143 33.5949 348.577 31.9739 350.377 30.8605C352.209 29.7144 354.277 29.1412 356.577 29.1412ZM359.327 36.5093C357.493 36.5093 356.009 37.0988 354.877 38.2777C353.777 39.4566 353.227 41.0939 353.227 43.1897C353.227 45.2856 353.777 46.9229 354.877 48.1018C356.009 49.2807 357.493 49.8701 359.327 49.8701C361.127 49.8701 362.593 49.2644 363.727 48.0527C364.893 46.841 365.477 45.22 365.477 43.1897C365.477 41.1267 364.893 39.5057 363.727 38.3268C362.593 37.1151 361.127 36.5093 359.327 36.5093ZM388.413 34.6427C389.479 32.9726 390.847 31.6464 392.513 30.664C394.213 29.6816 396.047 29.1904 398.013 29.1904V38.1794H395.563C393.297 38.1794 391.529 38.6543 390.263 39.6039C389.029 40.5535 388.413 42.1582 388.413 44.4177V56.8944H379.863V29.4851H388.413V34.6427Z" fill="white"/>
<path d="M325.62 20.5452V56.8944H317.07V20.5452H325.62ZM340.072 20.5452V56.8944H331.522V20.5452H340.072Z" fill="white"/>
<path d="M28.7504 13.6682H16.9922L50.5208 70.6481L56.3998 60.6574L28.7504 13.6682Z" fill="white"/>
<path d="M11.7582 13.6682H0L33.1012 69.9209L38.8168 59.6551L11.7582 13.6682Z" fill="white"/>
<path d="M65.0614 46.4706L72.6098 33.6365H60.8548L59.1822 36.4798L50.866 22.3519H79.24L84.3412 13.6682H34L59.189 56.4745L65.0648 46.477L65.0614 46.4706Z" fill="white"/>
</svg>
