<svg width="200" height="200" viewBox="0 0 200 200" fill="none" xmlns="http://www.w3.org/2000/svg">
<path d="M122.994 49H101.423L106.762 60.8029H121.712C128.926 60.8029 134.527 62.1629 138.514 64.8829C142.5 67.6029 144.494 71.6829 144.494 77.1229C144.494 82.5629 142.5 86.6429 138.514 89.3629C134.527 92.0829 132.486 93.4429 125.272 93.4429H122.266L128.12 105.464C135.998 105.464 139.178 106.606 143.355 109.326C147.531 112.046 149.62 116.369 149.62 122.294C149.62 128.123 147.531 132.397 143.355 135.117C139.178 137.837 133.151 139.197 125.272 139.197H61.6749L56.2109 151H125.842C138.466 151 147.958 148.62 154.318 143.86C160.773 139.003 164 132.203 164 123.46C164 117.631 162.719 112.774 160.156 108.889C157.593 104.906 149.715 100.146 145.348 98.1057C145.692 98.103 152.657 93.1514 155.03 89.3629C157.498 85.5743 158.732 80.9114 158.732 75.3743C158.732 67.2143 155.647 60.8029 149.477 56.14C143.307 51.38 134.479 49 122.994 49Z" fill="#FCFCFC"/>
<path d="M36 151L82.2127 49H96.6451L137.053 134H122.474L86.4404 57.16H92.2717L51.0155 151H36ZM55.6805 125.5L59.6166 113.843H117.055L121.282 125.5H55.6805Z" fill="#FCFCFC"/>
</svg>
