<svg width="400" height="122" viewBox="0 0 400 122" fill="none" xmlns="http://www.w3.org/2000/svg">
<path d="M120.234 95.7983H134.706V73.6057H146.872C162.614 73.6057 171.772 64.2141 171.772 50.5442C171.772 36.9415 162.781 27.3491 147.24 27.3491H120.234V95.7983ZM134.706 62.0081V39.1805H144.466C152.821 39.1805 156.865 43.7261 156.865 50.5442C156.865 57.3291 152.821 62.0081 144.533 62.0081H134.706ZM194.165 96.7677C201.752 96.7677 206.665 93.4588 209.172 88.6793H209.573V95.7983H223.075V61.1728C223.075 48.9402 212.714 43.793 201.284 43.793C188.984 43.793 180.896 49.6753 178.924 59.0336L192.093 60.1032C193.062 56.6941 196.103 54.1872 201.217 54.1872C206.063 54.1872 208.837 56.6272 208.837 60.8383V61.039C208.837 64.3479 205.328 64.7822 196.404 65.6511C186.244 66.5872 177.119 69.9963 177.119 81.4602C177.119 91.6205 184.372 96.7677 194.165 96.7677ZM198.242 86.9415C193.864 86.9415 190.722 84.9025 190.722 80.9923C190.722 76.9815 194.031 75.0094 199.044 74.3076C202.153 73.8733 207.233 73.1378 208.938 72.0017V77.4494C208.938 82.8303 204.492 86.9415 198.242 86.9415ZM257.25 116.119C271.922 116.119 282.35 109.435 282.35 96.2995V44.4615H268.212V53.0844H267.677C265.773 48.9066 261.595 43.793 253.005 43.793C241.742 43.793 232.216 52.5496 232.216 70.0296C232.216 87.1086 241.474 95.0629 253.038 95.0629C261.227 95.0629 265.806 90.9519 267.677 86.7076H268.279V96.0992C268.279 103.151 263.767 105.892 257.584 105.892C251.301 105.892 248.125 103.151 246.956 100.043L233.787 101.814C235.492 109.903 243.413 116.119 257.25 116.119ZM257.55 84.3677C250.565 84.3677 246.755 78.8198 246.755 69.9627C246.755 61.2397 250.498 55.123 257.55 55.123C264.469 55.123 268.346 60.9721 268.346 69.9627C268.346 79.0202 264.402 84.3677 257.55 84.3677ZM317.076 96.801C329.777 96.801 338.332 90.6178 340.339 81.0924L327.169 80.2235C325.732 84.1338 322.056 86.1728 317.31 86.1728C310.191 86.1728 305.679 81.4602 305.679 73.8064V73.7728H340.638V69.8625C340.638 52.4161 330.077 43.793 316.508 43.793C301.401 43.793 291.608 54.5217 291.608 70.3637C291.608 86.6407 301.267 96.801 317.076 96.801ZM305.679 64.9492C305.98 59.1005 310.425 54.4212 316.742 54.4212C322.925 54.4212 327.203 58.8329 327.236 64.9492H305.679ZM392.645 59.1005C391.374 49.642 383.754 43.793 370.786 43.793C357.65 43.793 348.994 49.876 349.028 59.7687C348.994 67.4561 353.841 72.436 363.868 74.4413L372.759 76.2128C377.236 77.1153 379.277 78.7529 379.341 81.3264C379.277 84.3677 375.966 86.5402 370.988 86.5402C365.905 86.5402 362.531 84.3677 361.66 80.1899L347.657 80.9254C348.994 90.7516 357.351 96.801 370.954 96.801C384.255 96.801 393.781 90.0161 393.815 79.8891C393.781 72.4696 388.934 68.0242 378.974 65.9856L369.683 64.114C364.904 63.0777 363.132 61.44 363.166 58.9667C363.132 55.8918 366.608 53.8864 371.021 53.8864C375.966 53.8864 378.907 56.5936 379.609 59.9025L392.645 59.1005Z" fill="white"/>
<path d="M14.4996 87.0588H84.8744V11.7646H14.3054C7.80646 11.7862 2.54285 17.0999 2.52148 23.6607V92.9902C2.52148 93.0194 2.52148 93.049 2.52148 93.0783C2.52148 100.019 7.91715 105.882 14.3054 105.882H84.8744V99.6077H14.3054C11.3919 99.6077 8.73681 96.4961 8.73681 93.0783C8.73681 89.8157 11.3764 87.0588 14.4996 87.0588ZM21.1674 18.1039H39.8133V51.9902L30.4127 43.6588L21.1674 51.9411V18.1039ZM8.73681 23.7098C8.7271 20.5921 11.2171 18.0568 14.3054 18.0392H14.9521V60.3922H21.0975L30.436 52.0275L39.8717 60.3922H46.0287V18.0392H78.659V80.7841H21.183H14.9677H14.4996C12.4777 80.7841 10.4926 81.3176 8.73873 82.3294L8.73681 23.7098Z" fill="white"/>
</svg>
