<svg width="400" height="171" viewBox="0 0 400 171" fill="none" xmlns="http://www.w3.org/2000/svg">
<path d="M52.3784 60.8379C52.3784 64.0811 51.5405 66.8109 49.8649 69.0271C48.1892 71.1892 45.9189 72.8379 43.0541 73.973C40.2432 75.1082 37.1622 75.6757 33.8108 75.6757H6V18.1082H36.8108C39.5135 18.1082 41.8378 18.8379 43.7838 20.2973C45.7838 21.7027 47.2973 23.5406 48.3243 25.8109C49.4054 28.0271 49.9459 30.3514 49.9459 32.7838C49.9459 35.5406 49.2432 38.1622 47.8378 40.6487C46.4324 43.1352 44.3784 44.973 41.6757 46.1622C44.973 47.1352 47.5676 48.8919 49.4595 51.4325C51.4054 53.973 52.3784 57.1082 52.3784 60.8379ZM41.1081 58.7298C41.1081 57.2703 40.8108 55.973 40.2162 54.8379C39.6216 53.6487 38.8108 52.7298 37.7838 52.0811C36.8108 51.3784 35.6757 51.0271 34.3784 51.0271H17.1892V66.1892H33.8108C35.1622 66.1892 36.3784 65.8649 37.4595 65.2163C38.5946 64.5136 39.4865 63.5946 40.1351 62.4595C40.7838 61.3244 41.1081 60.0811 41.1081 58.7298ZM17.1892 27.6757V42.1892H32.1081C33.3514 42.1892 34.4865 41.8919 35.5135 41.2973C36.5405 40.7027 37.3514 39.8649 37.9459 38.7838C38.5946 37.7027 38.9189 36.4055 38.9189 34.8919C38.9189 33.4325 38.6216 32.1622 38.027 31.0811C37.4865 30 36.7297 29.1622 35.7568 28.5676C34.8378 27.973 33.7838 27.6757 32.5946 27.6757H17.1892ZM57.8665 75.6757V18.1082H83.326C85.9746 18.1082 88.407 18.6487 90.6233 19.7298C92.8935 20.8109 94.8395 22.2703 96.4611 24.1082C98.1368 25.946 99.407 28 100.272 30.2703C101.191 32.5406 101.65 34.8649 101.65 37.2433C101.65 39.6757 101.218 42.0271 100.353 44.2973C99.5422 46.5136 98.353 48.4595 96.7854 50.1352C95.2178 51.8109 93.38 53.1082 91.2719 54.0271L104.407 75.6757H92.0827L80.2449 56.3784H69.0557V75.6757H57.8665ZM69.0557 46.5676H83.0827C84.4881 46.5676 85.7314 46.1622 86.8124 45.3514C87.8935 44.4865 88.7584 43.3514 89.407 41.946C90.0557 40.5406 90.38 38.973 90.38 37.2433C90.38 35.4055 90.0016 33.8109 89.2449 32.4595C88.4881 31.0541 87.5151 29.946 86.326 29.1352C85.1908 28.3244 83.9476 27.919 82.5962 27.919H69.0557V46.5676ZM108.545 75.6757V18.1082H119.735V75.6757H108.545ZM128.502 75.6757V18.1082H139.691V65.8649H169.043V75.6757H128.502ZM172.609 75.6757V18.1082H183.798V75.6757H172.609ZM203.755 38.7027V75.6757H192.566V18.1082H201.485L231.241 56.0541V18.1892H242.431V75.6757H233.106L203.755 38.7027ZM251.163 75.6757V18.1082H262.352V75.6757H251.163Z" fill="white"/>
<path d="M141.026 152C136.972 152 133.054 151.351 129.27 150.054C125.486 148.703 122.27 146.865 119.621 144.541L126.594 134.892C126.918 135.378 127.567 136.027 128.54 136.838C129.513 137.595 130.756 138.378 132.27 139.189C133.783 139.946 135.486 140.595 137.378 141.135C139.27 141.676 141.27 141.946 143.378 141.946C145.54 141.946 147.324 141.676 148.729 141.135C150.189 140.541 151.27 139.73 151.972 138.703C152.675 137.622 153.027 136.378 153.027 134.973C153.027 133.514 152.486 132.351 151.405 131.487C150.378 130.622 148.945 129.865 147.108 129.216C145.27 128.514 143.162 127.784 140.783 127.027C138.081 126.162 135.81 125.189 133.972 124.108C132.135 123.027 130.729 121.73 129.756 120.216C128.837 118.649 128.378 116.784 128.378 114.622C128.378 111.27 129.026 108.27 130.324 105.622C131.675 102.973 133.486 100.757 135.756 98.973C138.081 97.1352 140.702 95.7568 143.621 94.8379C146.54 93.8649 149.594 93.3784 152.783 93.3784C155.324 93.3784 157.675 93.6757 159.837 94.2703C162.054 94.8649 164.054 95.6487 165.837 96.6217C167.675 97.5946 169.27 98.6487 170.621 99.7838L163.729 108.865C163.567 108.487 163.081 107.973 162.27 107.324C161.459 106.676 160.432 106.054 159.189 105.46C157.945 104.865 156.567 104.351 155.054 103.919C153.54 103.432 151.972 103.189 150.351 103.189C148.243 103.189 146.432 103.514 144.918 104.162C143.459 104.811 142.378 105.703 141.675 106.838C140.972 107.973 140.621 109.324 140.621 110.892C140.621 112.081 141.027 113.081 141.837 113.892C142.702 114.703 143.918 115.405 145.486 116C147.054 116.541 148.972 117.162 151.243 117.865C154.108 118.676 156.594 119.649 158.702 120.784C160.864 121.919 162.54 123.351 163.729 125.081C164.918 126.757 165.513 128.919 165.513 131.568C165.513 135.189 164.81 138.297 163.405 140.892C162.054 143.487 160.216 145.595 157.891 147.216C155.567 148.838 152.945 150.054 150.027 150.865C147.162 151.622 144.162 152 141.026 152ZM189.497 103.595H172.227L174.254 93.7838H219.902L217.794 103.595H200.605L190.47 151.351H179.281L189.497 103.595ZM234.724 151.757C230.129 151.757 226.426 150.892 223.615 149.162C220.859 147.432 218.859 145.108 217.615 142.189C216.372 139.27 215.751 135.973 215.751 132.297C215.751 130.838 215.832 129.351 215.994 127.838C216.156 126.27 216.426 124.703 216.805 123.135L223.048 93.7838H234.156L227.913 123.135C227.642 124.378 227.426 125.595 227.264 126.784C227.156 127.973 227.102 129.162 227.102 130.351C227.102 132.514 227.399 134.459 227.994 136.189C228.588 137.919 229.588 139.297 230.994 140.324C232.453 141.351 234.372 141.865 236.751 141.865C239.237 141.865 241.399 141.351 243.237 140.324C245.129 139.243 246.751 137.811 248.102 136.027C249.507 134.243 250.642 132.243 251.507 130.027C252.426 127.757 253.156 125.46 253.697 123.135L259.94 93.7838H271.049L264.805 123.135C263.994 127.081 262.751 130.784 261.075 134.243C259.399 137.703 257.318 140.757 254.832 143.405C252.345 146 249.426 148.054 246.075 149.568C242.724 151.027 238.94 151.757 234.724 151.757ZM278.97 93.7838H298.997C303.97 93.7838 308.051 94.7838 311.241 96.7838C314.43 98.7298 316.808 101.378 318.376 104.73C319.943 108.081 320.727 111.865 320.727 116.081C320.727 121.162 319.862 125.865 318.132 130.189C316.457 134.459 314.078 138.189 310.997 141.378C307.97 144.514 304.376 146.973 300.214 148.757C296.105 150.487 291.619 151.351 286.754 151.351H266.728L278.97 93.7838ZM288.781 141.541C291.916 141.541 294.727 140.919 297.214 139.676C299.754 138.378 301.916 136.622 303.7 134.405C305.484 132.135 306.835 129.568 307.754 126.703C308.727 123.838 309.214 120.838 309.214 117.703C309.214 114.892 308.754 112.432 307.835 110.324C306.916 108.216 305.538 106.568 303.7 105.378C301.916 104.189 299.646 103.595 296.889 103.595H287.97L279.943 141.541H288.781ZM331.868 93.8649H342.976L330.732 151.351H319.624L331.868 93.8649ZM362.935 151.757C359.53 151.757 356.503 151.108 353.854 149.811C351.205 148.514 348.962 146.757 347.124 144.541C345.341 142.27 343.989 139.703 343.07 136.838C342.151 133.973 341.692 130.973 341.692 127.838C341.692 124.378 342.287 120.973 343.476 117.622C344.665 114.216 346.314 111.081 348.422 108.216C350.584 105.297 353.097 102.73 355.962 100.514C358.827 98.2973 361.908 96.5676 365.205 95.3244C368.557 94.0271 372.016 93.3784 375.584 93.3784C378.935 93.3784 381.908 94.0541 384.503 95.4054C387.151 96.7027 389.368 98.4865 391.151 100.757C392.989 103.027 394.341 105.595 395.205 108.46C396.124 111.324 396.584 114.324 396.584 117.459C396.584 120.919 395.989 124.324 394.8 127.676C393.611 130.973 391.962 134.081 389.854 137C387.746 139.919 385.259 142.487 382.395 144.703C379.584 146.919 376.503 148.649 373.151 149.892C369.854 151.135 366.449 151.757 362.935 151.757ZM365.124 141.865C368.097 141.865 370.8 141.162 373.232 139.757C375.719 138.297 377.854 136.405 379.638 134.081C381.476 131.757 382.854 129.216 383.773 126.46C384.746 123.649 385.232 120.919 385.232 118.27C385.232 115.568 384.773 113.108 383.854 110.892C382.989 108.622 381.665 106.811 379.881 105.46C378.151 104.054 375.935 103.351 373.232 103.351C370.259 103.351 367.53 104.054 365.043 105.46C362.611 106.865 360.503 108.73 358.719 111.054C356.935 113.378 355.53 115.946 354.503 118.757C353.53 121.514 353.043 124.243 353.043 126.946C353.043 129.595 353.476 132.054 354.341 134.324C355.259 136.595 356.611 138.432 358.395 139.838C360.178 141.189 362.422 141.865 365.124 141.865Z" fill="white"/>
</svg>
