<svg width="375" height="148" viewBox="0 0 375 148" fill="none" xmlns="http://www.w3.org/2000/svg">
<g opacity="0.7">
<g filter="url(#filter0_d_418_981)">
<path d="M95.5 107L96.1752 109.19L98 110L96.1752 110.81L95.5 113L94.8248 110.81L93 110L94.8248 109.19L95.5 107Z" fill="white"/>
</g>
<g opacity="0.7" filter="url(#filter1_d_418_981)">
<path d="M55 52L55.5402 53.4598L57 54L55.5402 54.5402L55 56L54.4598 54.5402L53 54L54.4598 53.4598L55 52Z" fill="white"/>
</g>
<g opacity="0.4" filter="url(#filter2_d_418_981)">
<path d="M270 56L270.54 57.4598L272 58L270.54 58.5402L270 60L269.46 58.5402L268 58L269.46 57.4598L270 56Z" fill="white"/>
</g>
<g opacity="0.2" filter="url(#filter3_d_418_981)">
<path d="M344 113L344.54 114.46L346 115L344.54 115.54L344 117L343.46 115.54L342 115L343.46 114.46L344 113Z" fill="white"/>
</g>
<g opacity="0.2" filter="url(#filter4_d_418_981)">
<path d="M279.5 120L280.715 123.65L284 125L280.715 126.35L279.5 130L278.285 126.35L275 125L278.285 123.65L279.5 120Z" fill="white"/>
</g>
<g opacity="0.3" filter="url(#filter5_d_418_981)">
<path d="M158.5 124L159.715 127.65L163 129L159.715 130.35L158.5 134L157.285 130.35L154 129L157.285 127.65L158.5 124Z" fill="white"/>
</g>
<g opacity="0.7" filter="url(#filter6_d_418_981)">
<path d="M101 64L101.81 66.9196L104 68L101.81 69.0804L101 72L100.19 69.0804L98 68L100.19 66.9196L101 64Z" fill="white"/>
</g>
<g opacity="0.3" filter="url(#filter7_d_418_981)">
<path d="M0 30L0.810272 32.9196L3 34L0.810272 35.0804L0 38L-0.810272 35.0804L-3 34L-0.810272 32.9196L0 30Z" fill="white"/>
</g>
<g opacity="0.4" filter="url(#filter8_d_418_981)">
<path d="M316 68L316.81 70.9196L319 72L316.81 73.0804L316 76L315.19 73.0804L313 72L315.19 70.9196L316 68Z" fill="white"/>
</g>
<g opacity="0.4" filter="url(#filter9_d_418_981)">
<path d="M-2 112L-1.18973 114.92L1 116L-1.18973 117.08L-2 120L-2.81027 117.08L-5 116L-2.81027 114.92L-2 112Z" fill="white"/>
</g>
<g filter="url(#filter10_d_418_981)">
<path d="M248 123L248.81 125.555L251 126.5L248.81 127.445L248 130L247.19 127.445L245 126.5L247.19 125.555L248 123Z" fill="white"/>
</g>
<g opacity="0.3" filter="url(#filter11_d_418_981)">
<path d="M127 127L127.81 129.555L130 130.5L127.81 131.445L127 134L126.19 131.445L124 130.5L126.19 129.555L127 127Z" fill="white"/>
</g>
<g opacity="0.7" filter="url(#filter12_d_418_981)">
<path d="M78 67L78.5402 68.8248L80 69.5L78.5402 70.1752L78 72L77.4598 70.1752L76 69.5L77.4598 68.8248L78 67Z" fill="white"/>
</g>
<g opacity="0.4" filter="url(#filter13_d_418_981)">
<path d="M293 71L293.54 72.8248L295 73.5L293.54 74.1752L293 76L292.46 74.1752L291 73.5L292.46 72.8248L293 71Z" fill="white"/>
</g>
<g filter="url(#filter14_d_418_981)">
<path d="M367 128L367.54 129.825L369 130.5L367.54 131.175L367 133L366.46 131.175L365 130.5L366.46 129.825L367 128Z" fill="white"/>
</g>
<g filter="url(#filter15_d_418_981)">
<path d="M87 38L87.8103 40.5547L90 41.5L87.8103 42.4453L87 45L86.1897 42.4453L84 41.5L86.1897 40.5547L87 38Z" fill="white"/>
</g>
<g opacity="0.4" filter="url(#filter16_d_418_981)">
<path d="M302 42L302.81 44.5547L305 45.5L302.81 46.4453L302 49L301.19 46.4453L299 45.5L301.19 44.5547L302 42Z" fill="white"/>
</g>
<g filter="url(#filter17_d_418_981)">
<path d="M376 99L376.81 101.555L379 102.5L376.81 103.445L376 106L375.19 103.445L373 102.5L375.19 101.555L376 99Z" fill="white"/>
</g>
<g opacity="0.7" filter="url(#filter18_d_418_981)">
<path d="M31.5 52L32.7154 55.6495L36 57L32.7154 58.3505L31.5 62L30.2846 58.3505L27 57L30.2846 55.6495L31.5 52Z" fill="white"/>
</g>
<g opacity="0.8" filter="url(#filter19_d_418_981)">
<path d="M246.5 56L247.715 59.6495L251 61L247.715 62.3505L246.5 66L245.285 62.3505L242 61L245.285 59.6495L246.5 56Z" fill="white"/>
</g>
<g opacity="0.2" filter="url(#filter20_d_418_981)">
<path d="M320.5 113L321.715 116.65L325 118L321.715 119.35L320.5 123L319.285 119.35L316 118L319.285 116.65L320.5 113Z" fill="white"/>
</g>
<g opacity="0.8" filter="url(#filter21_d_418_981)">
<path d="M199.5 117L200.715 120.65L204 122L200.715 123.35L199.5 127L198.285 123.35L195 122L198.285 120.65L199.5 117Z" fill="white"/>
</g>
<g opacity="0.8" filter="url(#filter22_d_418_981)">
<path d="M130.5 59L131.445 61.9196L134 63L131.445 64.0804L130.5 67L129.555 64.0804L127 63L129.555 61.9196L130.5 59Z" fill="white"/>
</g>
<g opacity="0.3" filter="url(#filter23_d_418_981)">
<path d="M29.5 25L30.4453 27.9196L33 29L30.4453 30.0804L29.5 33L28.5547 30.0804L26 29L28.5547 27.9196L29.5 25Z" fill="white"/>
</g>
<g opacity="0.4" filter="url(#filter24_d_418_981)">
<path d="M345.5 63L346.445 65.9196L349 67L346.445 68.0804L345.5 71L344.555 68.0804L342 67L344.555 65.9196L345.5 63Z" fill="white"/>
</g>
<g filter="url(#filter25_d_418_981)">
<path d="M27.5 107L28.4453 109.92L31 111L28.4453 112.08L27.5 115L26.5547 112.08L24 111L26.5547 109.92L27.5 107Z" fill="white"/>
</g>
<g opacity="0.3" filter="url(#filter26_d_418_981)">
<path d="M59.5 134L60.7154 137.65L64 139L60.7154 140.35L59.5 144L58.2846 140.35L55 139L58.2846 137.65L59.5 134Z" fill="white"/>
</g>
<g opacity="0.6" filter="url(#filter27_d_418_981)">
<path d="M196.5 59L197.715 62.6495L201 64L197.715 65.3505L196.5 69L195.285 65.3505L192 64L195.285 62.6495L196.5 59Z" fill="white"/>
</g>
</g>
<defs>
<filter id="filter0_d_418_981" x="89" y="103" width="13" height="14" filterUnits="userSpaceOnUse" color-interpolation-filters="sRGB">
<feFlood flood-opacity="0" result="BackgroundImageFix"/>
<feColorMatrix in="SourceAlpha" type="matrix" values="0 0 0 0 0 0 0 0 0 0 0 0 0 0 0 0 0 0 127 0" result="hardAlpha"/>
<feOffset/>
<feGaussianBlur stdDeviation="2"/>
<feComposite in2="hardAlpha" operator="out"/>
<feColorMatrix type="matrix" values="0 0 0 0 1 0 0 0 0 1 0 0 0 0 1 0 0 0 1 0"/>
<feBlend mode="normal" in2="BackgroundImageFix" result="effect1_dropShadow_418_981"/>
<feBlend mode="normal" in="SourceGraphic" in2="effect1_dropShadow_418_981" result="shape"/>
</filter>
<filter id="filter1_d_418_981" x="49" y="48" width="12" height="12" filterUnits="userSpaceOnUse" color-interpolation-filters="sRGB">
<feFlood flood-opacity="0" result="BackgroundImageFix"/>
<feColorMatrix in="SourceAlpha" type="matrix" values="0 0 0 0 0 0 0 0 0 0 0 0 0 0 0 0 0 0 127 0" result="hardAlpha"/>
<feOffset/>
<feGaussianBlur stdDeviation="2"/>
<feComposite in2="hardAlpha" operator="out"/>
<feColorMatrix type="matrix" values="0 0 0 0 1 0 0 0 0 1 0 0 0 0 1 0 0 0 1 0"/>
<feBlend mode="normal" in2="BackgroundImageFix" result="effect1_dropShadow_418_981"/>
<feBlend mode="normal" in="SourceGraphic" in2="effect1_dropShadow_418_981" result="shape"/>
</filter>
<filter id="filter2_d_418_981" x="264" y="52" width="12" height="12" filterUnits="userSpaceOnUse" color-interpolation-filters="sRGB">
<feFlood flood-opacity="0" result="BackgroundImageFix"/>
<feColorMatrix in="SourceAlpha" type="matrix" values="0 0 0 0 0 0 0 0 0 0 0 0 0 0 0 0 0 0 127 0" result="hardAlpha"/>
<feOffset/>
<feGaussianBlur stdDeviation="2"/>
<feComposite in2="hardAlpha" operator="out"/>
<feColorMatrix type="matrix" values="0 0 0 0 1 0 0 0 0 1 0 0 0 0 1 0 0 0 1 0"/>
<feBlend mode="normal" in2="BackgroundImageFix" result="effect1_dropShadow_418_981"/>
<feBlend mode="normal" in="SourceGraphic" in2="effect1_dropShadow_418_981" result="shape"/>
</filter>
<filter id="filter3_d_418_981" x="338" y="109" width="12" height="12" filterUnits="userSpaceOnUse" color-interpolation-filters="sRGB">
<feFlood flood-opacity="0" result="BackgroundImageFix"/>
<feColorMatrix in="SourceAlpha" type="matrix" values="0 0 0 0 0 0 0 0 0 0 0 0 0 0 0 0 0 0 127 0" result="hardAlpha"/>
<feOffset/>
<feGaussianBlur stdDeviation="2"/>
<feComposite in2="hardAlpha" operator="out"/>
<feColorMatrix type="matrix" values="0 0 0 0 1 0 0 0 0 1 0 0 0 0 1 0 0 0 1 0"/>
<feBlend mode="normal" in2="BackgroundImageFix" result="effect1_dropShadow_418_981"/>
<feBlend mode="normal" in="SourceGraphic" in2="effect1_dropShadow_418_981" result="shape"/>
</filter>
<filter id="filter4_d_418_981" x="271" y="116" width="17" height="18" filterUnits="userSpaceOnUse" color-interpolation-filters="sRGB">
<feFlood flood-opacity="0" result="BackgroundImageFix"/>
<feColorMatrix in="SourceAlpha" type="matrix" values="0 0 0 0 0 0 0 0 0 0 0 0 0 0 0 0 0 0 127 0" result="hardAlpha"/>
<feOffset/>
<feGaussianBlur stdDeviation="2"/>
<feComposite in2="hardAlpha" operator="out"/>
<feColorMatrix type="matrix" values="0 0 0 0 1 0 0 0 0 1 0 0 0 0 1 0 0 0 1 0"/>
<feBlend mode="normal" in2="BackgroundImageFix" result="effect1_dropShadow_418_981"/>
<feBlend mode="normal" in="SourceGraphic" in2="effect1_dropShadow_418_981" result="shape"/>
</filter>
<filter id="filter5_d_418_981" x="150" y="120" width="17" height="18" filterUnits="userSpaceOnUse" color-interpolation-filters="sRGB">
<feFlood flood-opacity="0" result="BackgroundImageFix"/>
<feColorMatrix in="SourceAlpha" type="matrix" values="0 0 0 0 0 0 0 0 0 0 0 0 0 0 0 0 0 0 127 0" result="hardAlpha"/>
<feOffset/>
<feGaussianBlur stdDeviation="2"/>
<feComposite in2="hardAlpha" operator="out"/>
<feColorMatrix type="matrix" values="0 0 0 0 1 0 0 0 0 1 0 0 0 0 1 0 0 0 1 0"/>
<feBlend mode="normal" in2="BackgroundImageFix" result="effect1_dropShadow_418_981"/>
<feBlend mode="normal" in="SourceGraphic" in2="effect1_dropShadow_418_981" result="shape"/>
</filter>
<filter id="filter6_d_418_981" x="94" y="60" width="14" height="16" filterUnits="userSpaceOnUse" color-interpolation-filters="sRGB">
<feFlood flood-opacity="0" result="BackgroundImageFix"/>
<feColorMatrix in="SourceAlpha" type="matrix" values="0 0 0 0 0 0 0 0 0 0 0 0 0 0 0 0 0 0 127 0" result="hardAlpha"/>
<feOffset/>
<feGaussianBlur stdDeviation="2"/>
<feComposite in2="hardAlpha" operator="out"/>
<feColorMatrix type="matrix" values="0 0 0 0 1 0 0 0 0 1 0 0 0 0 1 0 0 0 1 0"/>
<feBlend mode="normal" in2="BackgroundImageFix" result="effect1_dropShadow_418_981"/>
<feBlend mode="normal" in="SourceGraphic" in2="effect1_dropShadow_418_981" result="shape"/>
</filter>
<filter id="filter7_d_418_981" x="-7" y="26" width="14" height="16" filterUnits="userSpaceOnUse" color-interpolation-filters="sRGB">
<feFlood flood-opacity="0" result="BackgroundImageFix"/>
<feColorMatrix in="SourceAlpha" type="matrix" values="0 0 0 0 0 0 0 0 0 0 0 0 0 0 0 0 0 0 127 0" result="hardAlpha"/>
<feOffset/>
<feGaussianBlur stdDeviation="2"/>
<feComposite in2="hardAlpha" operator="out"/>
<feColorMatrix type="matrix" values="0 0 0 0 1 0 0 0 0 1 0 0 0 0 1 0 0 0 1 0"/>
<feBlend mode="normal" in2="BackgroundImageFix" result="effect1_dropShadow_418_981"/>
<feBlend mode="normal" in="SourceGraphic" in2="effect1_dropShadow_418_981" result="shape"/>
</filter>
<filter id="filter8_d_418_981" x="309" y="64" width="14" height="16" filterUnits="userSpaceOnUse" color-interpolation-filters="sRGB">
<feFlood flood-opacity="0" result="BackgroundImageFix"/>
<feColorMatrix in="SourceAlpha" type="matrix" values="0 0 0 0 0 0 0 0 0 0 0 0 0 0 0 0 0 0 127 0" result="hardAlpha"/>
<feOffset/>
<feGaussianBlur stdDeviation="2"/>
<feComposite in2="hardAlpha" operator="out"/>
<feColorMatrix type="matrix" values="0 0 0 0 1 0 0 0 0 1 0 0 0 0 1 0 0 0 1 0"/>
<feBlend mode="normal" in2="BackgroundImageFix" result="effect1_dropShadow_418_981"/>
<feBlend mode="normal" in="SourceGraphic" in2="effect1_dropShadow_418_981" result="shape"/>
</filter>
<filter id="filter9_d_418_981" x="-9" y="108" width="14" height="16" filterUnits="userSpaceOnUse" color-interpolation-filters="sRGB">
<feFlood flood-opacity="0" result="BackgroundImageFix"/>
<feColorMatrix in="SourceAlpha" type="matrix" values="0 0 0 0 0 0 0 0 0 0 0 0 0 0 0 0 0 0 127 0" result="hardAlpha"/>
<feOffset/>
<feGaussianBlur stdDeviation="2"/>
<feComposite in2="hardAlpha" operator="out"/>
<feColorMatrix type="matrix" values="0 0 0 0 1 0 0 0 0 1 0 0 0 0 1 0 0 0 1 0"/>
<feBlend mode="normal" in2="BackgroundImageFix" result="effect1_dropShadow_418_981"/>
<feBlend mode="normal" in="SourceGraphic" in2="effect1_dropShadow_418_981" result="shape"/>
</filter>
<filter id="filter10_d_418_981" x="241" y="119" width="14" height="15" filterUnits="userSpaceOnUse" color-interpolation-filters="sRGB">
<feFlood flood-opacity="0" result="BackgroundImageFix"/>
<feColorMatrix in="SourceAlpha" type="matrix" values="0 0 0 0 0 0 0 0 0 0 0 0 0 0 0 0 0 0 127 0" result="hardAlpha"/>
<feOffset/>
<feGaussianBlur stdDeviation="2"/>
<feComposite in2="hardAlpha" operator="out"/>
<feColorMatrix type="matrix" values="0 0 0 0 1 0 0 0 0 1 0 0 0 0 1 0 0 0 1 0"/>
<feBlend mode="normal" in2="BackgroundImageFix" result="effect1_dropShadow_418_981"/>
<feBlend mode="normal" in="SourceGraphic" in2="effect1_dropShadow_418_981" result="shape"/>
</filter>
<filter id="filter11_d_418_981" x="120" y="123" width="14" height="15" filterUnits="userSpaceOnUse" color-interpolation-filters="sRGB">
<feFlood flood-opacity="0" result="BackgroundImageFix"/>
<feColorMatrix in="SourceAlpha" type="matrix" values="0 0 0 0 0 0 0 0 0 0 0 0 0 0 0 0 0 0 127 0" result="hardAlpha"/>
<feOffset/>
<feGaussianBlur stdDeviation="2"/>
<feComposite in2="hardAlpha" operator="out"/>
<feColorMatrix type="matrix" values="0 0 0 0 1 0 0 0 0 1 0 0 0 0 1 0 0 0 1 0"/>
<feBlend mode="normal" in2="BackgroundImageFix" result="effect1_dropShadow_418_981"/>
<feBlend mode="normal" in="SourceGraphic" in2="effect1_dropShadow_418_981" result="shape"/>
</filter>
<filter id="filter12_d_418_981" x="72" y="63" width="12" height="13" filterUnits="userSpaceOnUse" color-interpolation-filters="sRGB">
<feFlood flood-opacity="0" result="BackgroundImageFix"/>
<feColorMatrix in="SourceAlpha" type="matrix" values="0 0 0 0 0 0 0 0 0 0 0 0 0 0 0 0 0 0 127 0" result="hardAlpha"/>
<feOffset/>
<feGaussianBlur stdDeviation="2"/>
<feComposite in2="hardAlpha" operator="out"/>
<feColorMatrix type="matrix" values="0 0 0 0 1 0 0 0 0 1 0 0 0 0 1 0 0 0 1 0"/>
<feBlend mode="normal" in2="BackgroundImageFix" result="effect1_dropShadow_418_981"/>
<feBlend mode="normal" in="SourceGraphic" in2="effect1_dropShadow_418_981" result="shape"/>
</filter>
<filter id="filter13_d_418_981" x="287" y="67" width="12" height="13" filterUnits="userSpaceOnUse" color-interpolation-filters="sRGB">
<feFlood flood-opacity="0" result="BackgroundImageFix"/>
<feColorMatrix in="SourceAlpha" type="matrix" values="0 0 0 0 0 0 0 0 0 0 0 0 0 0 0 0 0 0 127 0" result="hardAlpha"/>
<feOffset/>
<feGaussianBlur stdDeviation="2"/>
<feComposite in2="hardAlpha" operator="out"/>
<feColorMatrix type="matrix" values="0 0 0 0 1 0 0 0 0 1 0 0 0 0 1 0 0 0 1 0"/>
<feBlend mode="normal" in2="BackgroundImageFix" result="effect1_dropShadow_418_981"/>
<feBlend mode="normal" in="SourceGraphic" in2="effect1_dropShadow_418_981" result="shape"/>
</filter>
<filter id="filter14_d_418_981" x="361" y="124" width="12" height="13" filterUnits="userSpaceOnUse" color-interpolation-filters="sRGB">
<feFlood flood-opacity="0" result="BackgroundImageFix"/>
<feColorMatrix in="SourceAlpha" type="matrix" values="0 0 0 0 0 0 0 0 0 0 0 0 0 0 0 0 0 0 127 0" result="hardAlpha"/>
<feOffset/>
<feGaussianBlur stdDeviation="2"/>
<feComposite in2="hardAlpha" operator="out"/>
<feColorMatrix type="matrix" values="0 0 0 0 1 0 0 0 0 1 0 0 0 0 1 0 0 0 1 0"/>
<feBlend mode="normal" in2="BackgroundImageFix" result="effect1_dropShadow_418_981"/>
<feBlend mode="normal" in="SourceGraphic" in2="effect1_dropShadow_418_981" result="shape"/>
</filter>
<filter id="filter15_d_418_981" x="80" y="34" width="14" height="15" filterUnits="userSpaceOnUse" color-interpolation-filters="sRGB">
<feFlood flood-opacity="0" result="BackgroundImageFix"/>
<feColorMatrix in="SourceAlpha" type="matrix" values="0 0 0 0 0 0 0 0 0 0 0 0 0 0 0 0 0 0 127 0" result="hardAlpha"/>
<feOffset/>
<feGaussianBlur stdDeviation="2"/>
<feComposite in2="hardAlpha" operator="out"/>
<feColorMatrix type="matrix" values="0 0 0 0 1 0 0 0 0 1 0 0 0 0 1 0 0 0 1 0"/>
<feBlend mode="normal" in2="BackgroundImageFix" result="effect1_dropShadow_418_981"/>
<feBlend mode="normal" in="SourceGraphic" in2="effect1_dropShadow_418_981" result="shape"/>
</filter>
<filter id="filter16_d_418_981" x="295" y="38" width="14" height="15" filterUnits="userSpaceOnUse" color-interpolation-filters="sRGB">
<feFlood flood-opacity="0" result="BackgroundImageFix"/>
<feColorMatrix in="SourceAlpha" type="matrix" values="0 0 0 0 0 0 0 0 0 0 0 0 0 0 0 0 0 0 127 0" result="hardAlpha"/>
<feOffset/>
<feGaussianBlur stdDeviation="2"/>
<feComposite in2="hardAlpha" operator="out"/>
<feColorMatrix type="matrix" values="0 0 0 0 1 0 0 0 0 1 0 0 0 0 1 0 0 0 1 0"/>
<feBlend mode="normal" in2="BackgroundImageFix" result="effect1_dropShadow_418_981"/>
<feBlend mode="normal" in="SourceGraphic" in2="effect1_dropShadow_418_981" result="shape"/>
</filter>
<filter id="filter17_d_418_981" x="369" y="95" width="14" height="15" filterUnits="userSpaceOnUse" color-interpolation-filters="sRGB">
<feFlood flood-opacity="0" result="BackgroundImageFix"/>
<feColorMatrix in="SourceAlpha" type="matrix" values="0 0 0 0 0 0 0 0 0 0 0 0 0 0 0 0 0 0 127 0" result="hardAlpha"/>
<feOffset/>
<feGaussianBlur stdDeviation="2"/>
<feComposite in2="hardAlpha" operator="out"/>
<feColorMatrix type="matrix" values="0 0 0 0 1 0 0 0 0 1 0 0 0 0 1 0 0 0 1 0"/>
<feBlend mode="normal" in2="BackgroundImageFix" result="effect1_dropShadow_418_981"/>
<feBlend mode="normal" in="SourceGraphic" in2="effect1_dropShadow_418_981" result="shape"/>
</filter>
<filter id="filter18_d_418_981" x="23" y="48" width="17" height="18" filterUnits="userSpaceOnUse" color-interpolation-filters="sRGB">
<feFlood flood-opacity="0" result="BackgroundImageFix"/>
<feColorMatrix in="SourceAlpha" type="matrix" values="0 0 0 0 0 0 0 0 0 0 0 0 0 0 0 0 0 0 127 0" result="hardAlpha"/>
<feOffset/>
<feGaussianBlur stdDeviation="2"/>
<feComposite in2="hardAlpha" operator="out"/>
<feColorMatrix type="matrix" values="0 0 0 0 1 0 0 0 0 1 0 0 0 0 1 0 0 0 1 0"/>
<feBlend mode="normal" in2="BackgroundImageFix" result="effect1_dropShadow_418_981"/>
<feBlend mode="normal" in="SourceGraphic" in2="effect1_dropShadow_418_981" result="shape"/>
</filter>
<filter id="filter19_d_418_981" x="238" y="52" width="17" height="18" filterUnits="userSpaceOnUse" color-interpolation-filters="sRGB">
<feFlood flood-opacity="0" result="BackgroundImageFix"/>
<feColorMatrix in="SourceAlpha" type="matrix" values="0 0 0 0 0 0 0 0 0 0 0 0 0 0 0 0 0 0 127 0" result="hardAlpha"/>
<feOffset/>
<feGaussianBlur stdDeviation="2"/>
<feComposite in2="hardAlpha" operator="out"/>
<feColorMatrix type="matrix" values="0 0 0 0 1 0 0 0 0 1 0 0 0 0 1 0 0 0 1 0"/>
<feBlend mode="normal" in2="BackgroundImageFix" result="effect1_dropShadow_418_981"/>
<feBlend mode="normal" in="SourceGraphic" in2="effect1_dropShadow_418_981" result="shape"/>
</filter>
<filter id="filter20_d_418_981" x="312" y="109" width="17" height="18" filterUnits="userSpaceOnUse" color-interpolation-filters="sRGB">
<feFlood flood-opacity="0" result="BackgroundImageFix"/>
<feColorMatrix in="SourceAlpha" type="matrix" values="0 0 0 0 0 0 0 0 0 0 0 0 0 0 0 0 0 0 127 0" result="hardAlpha"/>
<feOffset/>
<feGaussianBlur stdDeviation="2"/>
<feComposite in2="hardAlpha" operator="out"/>
<feColorMatrix type="matrix" values="0 0 0 0 1 0 0 0 0 1 0 0 0 0 1 0 0 0 1 0"/>
<feBlend mode="normal" in2="BackgroundImageFix" result="effect1_dropShadow_418_981"/>
<feBlend mode="normal" in="SourceGraphic" in2="effect1_dropShadow_418_981" result="shape"/>
</filter>
<filter id="filter21_d_418_981" x="191" y="113" width="17" height="18" filterUnits="userSpaceOnUse" color-interpolation-filters="sRGB">
<feFlood flood-opacity="0" result="BackgroundImageFix"/>
<feColorMatrix in="SourceAlpha" type="matrix" values="0 0 0 0 0 0 0 0 0 0 0 0 0 0 0 0 0 0 127 0" result="hardAlpha"/>
<feOffset/>
<feGaussianBlur stdDeviation="2"/>
<feComposite in2="hardAlpha" operator="out"/>
<feColorMatrix type="matrix" values="0 0 0 0 1 0 0 0 0 1 0 0 0 0 1 0 0 0 1 0"/>
<feBlend mode="normal" in2="BackgroundImageFix" result="effect1_dropShadow_418_981"/>
<feBlend mode="normal" in="SourceGraphic" in2="effect1_dropShadow_418_981" result="shape"/>
</filter>
<filter id="filter22_d_418_981" x="123" y="55" width="15" height="16" filterUnits="userSpaceOnUse" color-interpolation-filters="sRGB">
<feFlood flood-opacity="0" result="BackgroundImageFix"/>
<feColorMatrix in="SourceAlpha" type="matrix" values="0 0 0 0 0 0 0 0 0 0 0 0 0 0 0 0 0 0 127 0" result="hardAlpha"/>
<feOffset/>
<feGaussianBlur stdDeviation="2"/>
<feComposite in2="hardAlpha" operator="out"/>
<feColorMatrix type="matrix" values="0 0 0 0 1 0 0 0 0 1 0 0 0 0 1 0 0 0 1 0"/>
<feBlend mode="normal" in2="BackgroundImageFix" result="effect1_dropShadow_418_981"/>
<feBlend mode="normal" in="SourceGraphic" in2="effect1_dropShadow_418_981" result="shape"/>
</filter>
<filter id="filter23_d_418_981" x="22" y="21" width="15" height="16" filterUnits="userSpaceOnUse" color-interpolation-filters="sRGB">
<feFlood flood-opacity="0" result="BackgroundImageFix"/>
<feColorMatrix in="SourceAlpha" type="matrix" values="0 0 0 0 0 0 0 0 0 0 0 0 0 0 0 0 0 0 127 0" result="hardAlpha"/>
<feOffset/>
<feGaussianBlur stdDeviation="2"/>
<feComposite in2="hardAlpha" operator="out"/>
<feColorMatrix type="matrix" values="0 0 0 0 1 0 0 0 0 1 0 0 0 0 1 0 0 0 1 0"/>
<feBlend mode="normal" in2="BackgroundImageFix" result="effect1_dropShadow_418_981"/>
<feBlend mode="normal" in="SourceGraphic" in2="effect1_dropShadow_418_981" result="shape"/>
</filter>
<filter id="filter24_d_418_981" x="338" y="59" width="15" height="16" filterUnits="userSpaceOnUse" color-interpolation-filters="sRGB">
<feFlood flood-opacity="0" result="BackgroundImageFix"/>
<feColorMatrix in="SourceAlpha" type="matrix" values="0 0 0 0 0 0 0 0 0 0 0 0 0 0 0 0 0 0 127 0" result="hardAlpha"/>
<feOffset/>
<feGaussianBlur stdDeviation="2"/>
<feComposite in2="hardAlpha" operator="out"/>
<feColorMatrix type="matrix" values="0 0 0 0 1 0 0 0 0 1 0 0 0 0 1 0 0 0 1 0"/>
<feBlend mode="normal" in2="BackgroundImageFix" result="effect1_dropShadow_418_981"/>
<feBlend mode="normal" in="SourceGraphic" in2="effect1_dropShadow_418_981" result="shape"/>
</filter>
<filter id="filter25_d_418_981" x="20" y="103" width="15" height="16" filterUnits="userSpaceOnUse" color-interpolation-filters="sRGB">
<feFlood flood-opacity="0" result="BackgroundImageFix"/>
<feColorMatrix in="SourceAlpha" type="matrix" values="0 0 0 0 0 0 0 0 0 0 0 0 0 0 0 0 0 0 127 0" result="hardAlpha"/>
<feOffset/>
<feGaussianBlur stdDeviation="2"/>
<feComposite in2="hardAlpha" operator="out"/>
<feColorMatrix type="matrix" values="0 0 0 0 1 0 0 0 0 1 0 0 0 0 1 0 0 0 1 0"/>
<feBlend mode="normal" in2="BackgroundImageFix" result="effect1_dropShadow_418_981"/>
<feBlend mode="normal" in="SourceGraphic" in2="effect1_dropShadow_418_981" result="shape"/>
</filter>
<filter id="filter26_d_418_981" x="51" y="130" width="17" height="18" filterUnits="userSpaceOnUse" color-interpolation-filters="sRGB">
<feFlood flood-opacity="0" result="BackgroundImageFix"/>
<feColorMatrix in="SourceAlpha" type="matrix" values="0 0 0 0 0 0 0 0 0 0 0 0 0 0 0 0 0 0 127 0" result="hardAlpha"/>
<feOffset/>
<feGaussianBlur stdDeviation="2"/>
<feComposite in2="hardAlpha" operator="out"/>
<feColorMatrix type="matrix" values="0 0 0 0 1 0 0 0 0 1 0 0 0 0 1 0 0 0 1 0"/>
<feBlend mode="normal" in2="BackgroundImageFix" result="effect1_dropShadow_418_981"/>
<feBlend mode="normal" in="SourceGraphic" in2="effect1_dropShadow_418_981" result="shape"/>
</filter>
<filter id="filter27_d_418_981" x="188" y="55" width="17" height="18" filterUnits="userSpaceOnUse" color-interpolation-filters="sRGB">
<feFlood flood-opacity="0" result="BackgroundImageFix"/>
<feColorMatrix in="SourceAlpha" type="matrix" values="0 0 0 0 0 0 0 0 0 0 0 0 0 0 0 0 0 0 127 0" result="hardAlpha"/>
<feOffset/>
<feGaussianBlur stdDeviation="2"/>
<feComposite in2="hardAlpha" operator="out"/>
<feColorMatrix type="matrix" values="0 0 0 0 1 0 0 0 0 1 0 0 0 0 1 0 0 0 1 0"/>
<feBlend mode="normal" in2="BackgroundImageFix" result="effect1_dropShadow_418_981"/>
<feBlend mode="normal" in="SourceGraphic" in2="effect1_dropShadow_418_981" result="shape"/>
</filter>
</defs>
</svg>
