<svg width="351" height="109" viewBox="0 0 351 109" fill="none" xmlns="http://www.w3.org/2000/svg">
<g opacity="0.7">
<g opacity="0.5" filter="url(#filter0_d_417_9557)">
<path d="M31.5 28L31.9051 29.4598L33 30L31.9051 30.5402L31.5 32L31.0949 30.5402L30 30L31.0949 29.4598L31.5 28Z" fill="white"/>
</g>
<g filter="url(#filter1_d_417_9557)">
<path d="M138.5 70L138.905 71.0949L140 71.5L138.905 71.9051L138.5 73L138.095 71.9051L137 71.5L138.095 71.0949L138.5 70Z" fill="white"/>
</g>
<g opacity="0.7" filter="url(#filter2_d_417_9557)">
<path d="M113 35L113.27 35.7299L114 36L113.27 36.2701L113 37L112.73 36.2701L112 36L112.73 35.7299L113 35Z" fill="white"/>
</g>
<g opacity="0.3" filter="url(#filter3_d_417_9557)">
<path d="M48.5 13L48.9051 13.7299L50 14L48.9051 14.2701L48.5 15L48.0949 14.2701L47 14L48.0949 13.7299L48.5 13Z" fill="white"/>
</g>
<g opacity="0.4" filter="url(#filter4_d_417_9557)">
<path d="M249.5 37L249.905 38.0949L251 38.5L249.905 38.9051L249.5 40L249.095 38.9051L248 38.5L249.095 38.0949L249.5 37Z" fill="white"/>
</g>
<g opacity="0.2" filter="url(#filter5_d_417_9557)">
<path d="M296.5 73L296.905 74.0949L298 74.5L296.905 74.9051L296.5 76L296.095 74.9051L295 74.5L296.095 74.0949L296.5 73Z" fill="white"/>
</g>
<g filter="url(#filter6_d_417_9557)">
<path d="M47.5 65L47.9051 66.0949L49 66.5L47.9051 66.9051L47.5 68L47.0949 66.9051L46 66.5L47.0949 66.0949L47.5 65Z" fill="white"/>
</g>
<g opacity="0.5" filter="url(#filter7_d_417_9557)">
<path d="M72 39L72.8103 41.1897L75 42L72.8103 42.8103L72 45L71.1897 42.8103L69 42L71.1897 41.1897L72 39Z" fill="white"/>
</g>
<g opacity="0.2" filter="url(#filter8_d_417_9557)">
<path d="M256 78L256.81 80.1897L259 81L256.81 81.8103L256 84L255.19 81.8103L253 81L255.19 80.1897L256 78Z" fill="white"/>
</g>
<g opacity="0.3" filter="url(#filter9_d_417_9557)">
<path d="M179 80L179.81 82.5547L182 83.5L179.81 84.4453L179 87L178.19 84.4453L176 83.5L178.19 82.5547L179 80Z" fill="white"/>
</g>
<g opacity="0.7" filter="url(#filter10_d_417_9557)">
<path d="M142 42L142.54 43.8248L144 44.5L142.54 45.1752L142 47L141.46 45.1752L140 44.5L141.46 43.8248L142 42Z" fill="white"/>
</g>
<g opacity="0.3" filter="url(#filter11_d_417_9557)">
<path d="M78 21L78.5402 22.8248L80 23.5L78.5402 24.1752L78 26L77.4598 24.1752L76 23.5L77.4598 22.8248L78 21Z" fill="white"/>
</g>
<g opacity="0.4" filter="url(#filter12_d_417_9557)">
<path d="M279 45L279.54 46.8248L281 47.5L279.54 48.1752L279 50L278.46 48.1752L277 47.5L278.46 46.8248L279 45Z" fill="white"/>
</g>
<g filter="url(#filter13_d_417_9557)">
<path d="M326 81L326.54 82.8248L328 83.5L326.54 84.1752L326 86L325.46 84.1752L324 83.5L325.46 82.8248L326 81Z" fill="white"/>
</g>
<g opacity="0.4" filter="url(#filter14_d_417_9557)">
<path d="M76.5 73L76.9051 74.8248L78 75.5L76.9051 76.1752L76.5 78L76.0949 76.1752L75 75.5L76.0949 74.8248L76.5 73Z" fill="white"/>
</g>
<g opacity="0.5" filter="url(#filter15_d_417_9557)">
<path d="M52 41L52.5402 42.4598L54 43L52.5402 43.5402L52 45L51.4598 43.5402L50 43L51.4598 42.4598L52 41Z" fill="white"/>
</g>
<g filter="url(#filter16_d_417_9557)">
<path d="M236 80L236.54 81.4598L238 82L236.54 82.5402L236 84L235.46 82.5402L234 82L235.46 81.4598L236 80Z" fill="white"/>
</g>
<g opacity="0.3" filter="url(#filter17_d_417_9557)">
<path d="M159 82L159.54 83.8248L161 84.5L159.54 85.1752L159 87L158.46 85.1752L157 84.5L158.46 83.8248L159 82Z" fill="white"/>
</g>
<g opacity="0.7" filter="url(#filter18_d_417_9557)">
<path d="M127.5 44L127.905 45.0949L129 45.5L127.905 45.9051L127.5 47L127.095 45.9051L126 45.5L127.095 45.0949L127.5 44Z" fill="white"/>
</g>
<g opacity="0.3" filter="url(#filter19_d_417_9557)">
<path d="M63 22L63.2701 23.4598L64 24L63.2701 24.5402L63 26L62.7299 24.5402L62 24L62.7299 23.4598L63 22Z" fill="white"/>
</g>
<g opacity="0.4" filter="url(#filter20_d_417_9557)">
<path d="M264.5 47L264.905 48.0949L266 48.5L264.905 48.9051L264.5 50L264.095 48.9051L263 48.5L264.095 48.0949L264.5 47Z" fill="white"/>
</g>
<g filter="url(#filter21_d_417_9557)">
<path d="M311.5 83L311.905 84.0949L313 84.5L311.905 84.9051L311.5 86L311.095 84.9051L310 84.5L311.095 84.0949L311.5 83Z" fill="white"/>
</g>
<g opacity="0.4" filter="url(#filter22_d_417_9557)">
<path d="M62 75L62.2701 76.0949L63 76.5L62.2701 76.9051L62 78L61.7299 76.9051L61 76.5L61.7299 76.0949L62 75Z" fill="white"/>
</g>
<g filter="url(#filter23_d_417_9557)">
<path d="M133 26L133.54 27.4598L135 28L133.54 28.5402L133 30L132.46 28.5402L131 28L132.46 27.4598L133 26Z" fill="white"/>
</g>
<g opacity="0.3" filter="url(#filter24_d_417_9557)">
<path d="M69 4L69.5402 5.45982L71 6L69.5402 6.54018L69 8L68.4598 6.54018L67 6L68.4598 5.45982L69 4Z" fill="white"/>
</g>
<g opacity="0.4" filter="url(#filter25_d_417_9557)">
<path d="M270 28L270.54 29.8248L272 30.5L270.54 31.1752L270 33L269.46 31.1752L268 30.5L269.46 29.8248L270 28Z" fill="white"/>
</g>
<g filter="url(#filter26_d_417_9557)">
<path d="M317 64L317.54 65.8248L319 66.5L317.54 67.1752L317 69L316.46 67.1752L315 66.5L316.46 65.8248L317 64Z" fill="white"/>
</g>
<g opacity="0.7" filter="url(#filter27_d_417_9557)">
<path d="M98 35L98.8103 37.1897L101 38L98.8103 38.8103L98 41L97.1897 38.8103L95 38L97.1897 37.1897L98 35Z" fill="white"/>
</g>
<g opacity="0.8" filter="url(#filter28_d_417_9557)">
<path d="M235 37L235.81 39.1897L238 40L235.81 40.8103L235 43L234.19 40.8103L232 40L234.19 39.1897L235 37Z" fill="white"/>
</g>
<g opacity="0.2" filter="url(#filter29_d_417_9557)">
<path d="M282 73L282.81 75.5547L285 76.5L282.81 77.4453L282 80L281.19 77.4453L279 76.5L281.19 75.5547L282 73Z" fill="white"/>
</g>
<g opacity="0.8" filter="url(#filter30_d_417_9557)">
<path d="M205 76L205.81 78.1897L208 79L205.81 79.8103L205 82L204.19 79.8103L202 79L204.19 78.1897L205 76Z" fill="white"/>
</g>
<g opacity="0.8" filter="url(#filter31_d_417_9557)">
<path d="M161 39L161.54 40.8248L163 41.5L161.54 42.1752L161 44L160.46 42.1752L159 41.5L160.46 40.8248L161 39Z" fill="white"/>
</g>
<g opacity="0.3" filter="url(#filter32_d_417_9557)">
<path d="M96.5 17L97.1752 18.8248L99 19.5L97.1752 20.1752L96.5 22L95.8248 20.1752L94 19.5L95.8248 18.8248L96.5 17Z" fill="white"/>
</g>
<g opacity="0.4" filter="url(#filter33_d_417_9557)">
<path d="M297.5 42L298.175 43.8248L300 44.5L298.175 45.1752L297.5 47L296.825 45.1752L295 44.5L296.825 43.8248L297.5 42Z" fill="white"/>
</g>
<g filter="url(#filter34_d_417_9557)">
<path d="M345 78L345.54 79.8248L347 80.5L345.54 81.1752L345 83L344.46 81.1752L343 80.5L344.46 79.8248L345 78Z" fill="white"/>
</g>
<g filter="url(#filter35_d_417_9557)">
<path d="M95.5 70L96.1752 71.8248L98 72.5L96.1752 73.1752L95.5 75L94.8248 73.1752L93 72.5L94.8248 71.8248L95.5 70Z" fill="white"/>
</g>
<g opacity="0.5" filter="url(#filter36_d_417_9557)">
<path d="M7 39L7.81027 41.5547L10 42.5L7.81027 43.4453L7 46L6.18973 43.4453L4 42.5L6.18973 41.5547L7 39Z" fill="white"/>
</g>
<g opacity="0.3" filter="url(#filter37_d_417_9557)">
<path d="M116 87L116.81 89.1897L119 90L116.81 90.8103L116 93L115.19 90.8103L113 90L115.19 89.1897L116 87Z" fill="white"/>
</g>
<g opacity="0.6" filter="url(#filter38_d_417_9557)">
<path d="M203 39L203.81 41.1897L206 42L203.81 42.8103L203 45L202.19 42.8103L200 42L202.19 41.1897L203 39Z" fill="white"/>
</g>
<g filter="url(#filter39_b_417_9557)">
<mask id="path-40-inside-1_417_9557" fill="white">
<path d="M4 53H347V109H4V53Z"/>
</mask>
<path d="M4 53H347V109H4V53Z" fill="black" fill-opacity="0.1"/>
<path d="M4 54H347V52H4V54Z" fill="url(#paint0_linear_417_9557)" mask="url(#path-40-inside-1_417_9557)"/>
</g>
</g>
<defs>
<filter id="filter0_d_417_9557" x="26" y="24" width="11" height="12" filterUnits="userSpaceOnUse" color-interpolation-filters="sRGB">
<feFlood flood-opacity="0" result="BackgroundImageFix"/>
<feColorMatrix in="SourceAlpha" type="matrix" values="0 0 0 0 0 0 0 0 0 0 0 0 0 0 0 0 0 0 127 0" result="hardAlpha"/>
<feOffset/>
<feGaussianBlur stdDeviation="2"/>
<feComposite in2="hardAlpha" operator="out"/>
<feColorMatrix type="matrix" values="0 0 0 0 1 0 0 0 0 1 0 0 0 0 1 0 0 0 1 0"/>
<feBlend mode="normal" in2="BackgroundImageFix" result="effect1_dropShadow_417_9557"/>
<feBlend mode="normal" in="SourceGraphic" in2="effect1_dropShadow_417_9557" result="shape"/>
</filter>
<filter id="filter1_d_417_9557" x="133" y="66" width="11" height="11" filterUnits="userSpaceOnUse" color-interpolation-filters="sRGB">
<feFlood flood-opacity="0" result="BackgroundImageFix"/>
<feColorMatrix in="SourceAlpha" type="matrix" values="0 0 0 0 0 0 0 0 0 0 0 0 0 0 0 0 0 0 127 0" result="hardAlpha"/>
<feOffset/>
<feGaussianBlur stdDeviation="2"/>
<feComposite in2="hardAlpha" operator="out"/>
<feColorMatrix type="matrix" values="0 0 0 0 1 0 0 0 0 1 0 0 0 0 1 0 0 0 1 0"/>
<feBlend mode="normal" in2="BackgroundImageFix" result="effect1_dropShadow_417_9557"/>
<feBlend mode="normal" in="SourceGraphic" in2="effect1_dropShadow_417_9557" result="shape"/>
</filter>
<filter id="filter2_d_417_9557" x="108" y="31" width="10" height="10" filterUnits="userSpaceOnUse" color-interpolation-filters="sRGB">
<feFlood flood-opacity="0" result="BackgroundImageFix"/>
<feColorMatrix in="SourceAlpha" type="matrix" values="0 0 0 0 0 0 0 0 0 0 0 0 0 0 0 0 0 0 127 0" result="hardAlpha"/>
<feOffset/>
<feGaussianBlur stdDeviation="2"/>
<feComposite in2="hardAlpha" operator="out"/>
<feColorMatrix type="matrix" values="0 0 0 0 1 0 0 0 0 1 0 0 0 0 1 0 0 0 1 0"/>
<feBlend mode="normal" in2="BackgroundImageFix" result="effect1_dropShadow_417_9557"/>
<feBlend mode="normal" in="SourceGraphic" in2="effect1_dropShadow_417_9557" result="shape"/>
</filter>
<filter id="filter3_d_417_9557" x="43" y="9" width="11" height="10" filterUnits="userSpaceOnUse" color-interpolation-filters="sRGB">
<feFlood flood-opacity="0" result="BackgroundImageFix"/>
<feColorMatrix in="SourceAlpha" type="matrix" values="0 0 0 0 0 0 0 0 0 0 0 0 0 0 0 0 0 0 127 0" result="hardAlpha"/>
<feOffset/>
<feGaussianBlur stdDeviation="2"/>
<feComposite in2="hardAlpha" operator="out"/>
<feColorMatrix type="matrix" values="0 0 0 0 1 0 0 0 0 1 0 0 0 0 1 0 0 0 1 0"/>
<feBlend mode="normal" in2="BackgroundImageFix" result="effect1_dropShadow_417_9557"/>
<feBlend mode="normal" in="SourceGraphic" in2="effect1_dropShadow_417_9557" result="shape"/>
</filter>
<filter id="filter4_d_417_9557" x="244" y="33" width="11" height="11" filterUnits="userSpaceOnUse" color-interpolation-filters="sRGB">
<feFlood flood-opacity="0" result="BackgroundImageFix"/>
<feColorMatrix in="SourceAlpha" type="matrix" values="0 0 0 0 0 0 0 0 0 0 0 0 0 0 0 0 0 0 127 0" result="hardAlpha"/>
<feOffset/>
<feGaussianBlur stdDeviation="2"/>
<feComposite in2="hardAlpha" operator="out"/>
<feColorMatrix type="matrix" values="0 0 0 0 1 0 0 0 0 1 0 0 0 0 1 0 0 0 1 0"/>
<feBlend mode="normal" in2="BackgroundImageFix" result="effect1_dropShadow_417_9557"/>
<feBlend mode="normal" in="SourceGraphic" in2="effect1_dropShadow_417_9557" result="shape"/>
</filter>
<filter id="filter5_d_417_9557" x="291" y="69" width="11" height="11" filterUnits="userSpaceOnUse" color-interpolation-filters="sRGB">
<feFlood flood-opacity="0" result="BackgroundImageFix"/>
<feColorMatrix in="SourceAlpha" type="matrix" values="0 0 0 0 0 0 0 0 0 0 0 0 0 0 0 0 0 0 127 0" result="hardAlpha"/>
<feOffset/>
<feGaussianBlur stdDeviation="2"/>
<feComposite in2="hardAlpha" operator="out"/>
<feColorMatrix type="matrix" values="0 0 0 0 1 0 0 0 0 1 0 0 0 0 1 0 0 0 1 0"/>
<feBlend mode="normal" in2="BackgroundImageFix" result="effect1_dropShadow_417_9557"/>
<feBlend mode="normal" in="SourceGraphic" in2="effect1_dropShadow_417_9557" result="shape"/>
</filter>
<filter id="filter6_d_417_9557" x="42" y="61" width="11" height="11" filterUnits="userSpaceOnUse" color-interpolation-filters="sRGB">
<feFlood flood-opacity="0" result="BackgroundImageFix"/>
<feColorMatrix in="SourceAlpha" type="matrix" values="0 0 0 0 0 0 0 0 0 0 0 0 0 0 0 0 0 0 127 0" result="hardAlpha"/>
<feOffset/>
<feGaussianBlur stdDeviation="2"/>
<feComposite in2="hardAlpha" operator="out"/>
<feColorMatrix type="matrix" values="0 0 0 0 1 0 0 0 0 1 0 0 0 0 1 0 0 0 1 0"/>
<feBlend mode="normal" in2="BackgroundImageFix" result="effect1_dropShadow_417_9557"/>
<feBlend mode="normal" in="SourceGraphic" in2="effect1_dropShadow_417_9557" result="shape"/>
</filter>
<filter id="filter7_d_417_9557" x="65" y="35" width="14" height="14" filterUnits="userSpaceOnUse" color-interpolation-filters="sRGB">
<feFlood flood-opacity="0" result="BackgroundImageFix"/>
<feColorMatrix in="SourceAlpha" type="matrix" values="0 0 0 0 0 0 0 0 0 0 0 0 0 0 0 0 0 0 127 0" result="hardAlpha"/>
<feOffset/>
<feGaussianBlur stdDeviation="2"/>
<feComposite in2="hardAlpha" operator="out"/>
<feColorMatrix type="matrix" values="0 0 0 0 1 0 0 0 0 1 0 0 0 0 1 0 0 0 1 0"/>
<feBlend mode="normal" in2="BackgroundImageFix" result="effect1_dropShadow_417_9557"/>
<feBlend mode="normal" in="SourceGraphic" in2="effect1_dropShadow_417_9557" result="shape"/>
</filter>
<filter id="filter8_d_417_9557" x="249" y="74" width="14" height="14" filterUnits="userSpaceOnUse" color-interpolation-filters="sRGB">
<feFlood flood-opacity="0" result="BackgroundImageFix"/>
<feColorMatrix in="SourceAlpha" type="matrix" values="0 0 0 0 0 0 0 0 0 0 0 0 0 0 0 0 0 0 127 0" result="hardAlpha"/>
<feOffset/>
<feGaussianBlur stdDeviation="2"/>
<feComposite in2="hardAlpha" operator="out"/>
<feColorMatrix type="matrix" values="0 0 0 0 1 0 0 0 0 1 0 0 0 0 1 0 0 0 1 0"/>
<feBlend mode="normal" in2="BackgroundImageFix" result="effect1_dropShadow_417_9557"/>
<feBlend mode="normal" in="SourceGraphic" in2="effect1_dropShadow_417_9557" result="shape"/>
</filter>
<filter id="filter9_d_417_9557" x="172" y="76" width="14" height="15" filterUnits="userSpaceOnUse" color-interpolation-filters="sRGB">
<feFlood flood-opacity="0" result="BackgroundImageFix"/>
<feColorMatrix in="SourceAlpha" type="matrix" values="0 0 0 0 0 0 0 0 0 0 0 0 0 0 0 0 0 0 127 0" result="hardAlpha"/>
<feOffset/>
<feGaussianBlur stdDeviation="2"/>
<feComposite in2="hardAlpha" operator="out"/>
<feColorMatrix type="matrix" values="0 0 0 0 1 0 0 0 0 1 0 0 0 0 1 0 0 0 1 0"/>
<feBlend mode="normal" in2="BackgroundImageFix" result="effect1_dropShadow_417_9557"/>
<feBlend mode="normal" in="SourceGraphic" in2="effect1_dropShadow_417_9557" result="shape"/>
</filter>
<filter id="filter10_d_417_9557" x="136" y="38" width="12" height="13" filterUnits="userSpaceOnUse" color-interpolation-filters="sRGB">
<feFlood flood-opacity="0" result="BackgroundImageFix"/>
<feColorMatrix in="SourceAlpha" type="matrix" values="0 0 0 0 0 0 0 0 0 0 0 0 0 0 0 0 0 0 127 0" result="hardAlpha"/>
<feOffset/>
<feGaussianBlur stdDeviation="2"/>
<feComposite in2="hardAlpha" operator="out"/>
<feColorMatrix type="matrix" values="0 0 0 0 1 0 0 0 0 1 0 0 0 0 1 0 0 0 1 0"/>
<feBlend mode="normal" in2="BackgroundImageFix" result="effect1_dropShadow_417_9557"/>
<feBlend mode="normal" in="SourceGraphic" in2="effect1_dropShadow_417_9557" result="shape"/>
</filter>
<filter id="filter11_d_417_9557" x="72" y="17" width="12" height="13" filterUnits="userSpaceOnUse" color-interpolation-filters="sRGB">
<feFlood flood-opacity="0" result="BackgroundImageFix"/>
<feColorMatrix in="SourceAlpha" type="matrix" values="0 0 0 0 0 0 0 0 0 0 0 0 0 0 0 0 0 0 127 0" result="hardAlpha"/>
<feOffset/>
<feGaussianBlur stdDeviation="2"/>
<feComposite in2="hardAlpha" operator="out"/>
<feColorMatrix type="matrix" values="0 0 0 0 1 0 0 0 0 1 0 0 0 0 1 0 0 0 1 0"/>
<feBlend mode="normal" in2="BackgroundImageFix" result="effect1_dropShadow_417_9557"/>
<feBlend mode="normal" in="SourceGraphic" in2="effect1_dropShadow_417_9557" result="shape"/>
</filter>
<filter id="filter12_d_417_9557" x="273" y="41" width="12" height="13" filterUnits="userSpaceOnUse" color-interpolation-filters="sRGB">
<feFlood flood-opacity="0" result="BackgroundImageFix"/>
<feColorMatrix in="SourceAlpha" type="matrix" values="0 0 0 0 0 0 0 0 0 0 0 0 0 0 0 0 0 0 127 0" result="hardAlpha"/>
<feOffset/>
<feGaussianBlur stdDeviation="2"/>
<feComposite in2="hardAlpha" operator="out"/>
<feColorMatrix type="matrix" values="0 0 0 0 1 0 0 0 0 1 0 0 0 0 1 0 0 0 1 0"/>
<feBlend mode="normal" in2="BackgroundImageFix" result="effect1_dropShadow_417_9557"/>
<feBlend mode="normal" in="SourceGraphic" in2="effect1_dropShadow_417_9557" result="shape"/>
</filter>
<filter id="filter13_d_417_9557" x="320" y="77" width="12" height="13" filterUnits="userSpaceOnUse" color-interpolation-filters="sRGB">
<feFlood flood-opacity="0" result="BackgroundImageFix"/>
<feColorMatrix in="SourceAlpha" type="matrix" values="0 0 0 0 0 0 0 0 0 0 0 0 0 0 0 0 0 0 127 0" result="hardAlpha"/>
<feOffset/>
<feGaussianBlur stdDeviation="2"/>
<feComposite in2="hardAlpha" operator="out"/>
<feColorMatrix type="matrix" values="0 0 0 0 1 0 0 0 0 1 0 0 0 0 1 0 0 0 1 0"/>
<feBlend mode="normal" in2="BackgroundImageFix" result="effect1_dropShadow_417_9557"/>
<feBlend mode="normal" in="SourceGraphic" in2="effect1_dropShadow_417_9557" result="shape"/>
</filter>
<filter id="filter14_d_417_9557" x="71" y="69" width="11" height="13" filterUnits="userSpaceOnUse" color-interpolation-filters="sRGB">
<feFlood flood-opacity="0" result="BackgroundImageFix"/>
<feColorMatrix in="SourceAlpha" type="matrix" values="0 0 0 0 0 0 0 0 0 0 0 0 0 0 0 0 0 0 127 0" result="hardAlpha"/>
<feOffset/>
<feGaussianBlur stdDeviation="2"/>
<feComposite in2="hardAlpha" operator="out"/>
<feColorMatrix type="matrix" values="0 0 0 0 1 0 0 0 0 1 0 0 0 0 1 0 0 0 1 0"/>
<feBlend mode="normal" in2="BackgroundImageFix" result="effect1_dropShadow_417_9557"/>
<feBlend mode="normal" in="SourceGraphic" in2="effect1_dropShadow_417_9557" result="shape"/>
</filter>
<filter id="filter15_d_417_9557" x="46" y="37" width="12" height="12" filterUnits="userSpaceOnUse" color-interpolation-filters="sRGB">
<feFlood flood-opacity="0" result="BackgroundImageFix"/>
<feColorMatrix in="SourceAlpha" type="matrix" values="0 0 0 0 0 0 0 0 0 0 0 0 0 0 0 0 0 0 127 0" result="hardAlpha"/>
<feOffset/>
<feGaussianBlur stdDeviation="2"/>
<feComposite in2="hardAlpha" operator="out"/>
<feColorMatrix type="matrix" values="0 0 0 0 1 0 0 0 0 1 0 0 0 0 1 0 0 0 1 0"/>
<feBlend mode="normal" in2="BackgroundImageFix" result="effect1_dropShadow_417_9557"/>
<feBlend mode="normal" in="SourceGraphic" in2="effect1_dropShadow_417_9557" result="shape"/>
</filter>
<filter id="filter16_d_417_9557" x="230" y="76" width="12" height="12" filterUnits="userSpaceOnUse" color-interpolation-filters="sRGB">
<feFlood flood-opacity="0" result="BackgroundImageFix"/>
<feColorMatrix in="SourceAlpha" type="matrix" values="0 0 0 0 0 0 0 0 0 0 0 0 0 0 0 0 0 0 127 0" result="hardAlpha"/>
<feOffset/>
<feGaussianBlur stdDeviation="2"/>
<feComposite in2="hardAlpha" operator="out"/>
<feColorMatrix type="matrix" values="0 0 0 0 1 0 0 0 0 1 0 0 0 0 1 0 0 0 1 0"/>
<feBlend mode="normal" in2="BackgroundImageFix" result="effect1_dropShadow_417_9557"/>
<feBlend mode="normal" in="SourceGraphic" in2="effect1_dropShadow_417_9557" result="shape"/>
</filter>
<filter id="filter17_d_417_9557" x="153" y="78" width="12" height="13" filterUnits="userSpaceOnUse" color-interpolation-filters="sRGB">
<feFlood flood-opacity="0" result="BackgroundImageFix"/>
<feColorMatrix in="SourceAlpha" type="matrix" values="0 0 0 0 0 0 0 0 0 0 0 0 0 0 0 0 0 0 127 0" result="hardAlpha"/>
<feOffset/>
<feGaussianBlur stdDeviation="2"/>
<feComposite in2="hardAlpha" operator="out"/>
<feColorMatrix type="matrix" values="0 0 0 0 1 0 0 0 0 1 0 0 0 0 1 0 0 0 1 0"/>
<feBlend mode="normal" in2="BackgroundImageFix" result="effect1_dropShadow_417_9557"/>
<feBlend mode="normal" in="SourceGraphic" in2="effect1_dropShadow_417_9557" result="shape"/>
</filter>
<filter id="filter18_d_417_9557" x="122" y="40" width="11" height="11" filterUnits="userSpaceOnUse" color-interpolation-filters="sRGB">
<feFlood flood-opacity="0" result="BackgroundImageFix"/>
<feColorMatrix in="SourceAlpha" type="matrix" values="0 0 0 0 0 0 0 0 0 0 0 0 0 0 0 0 0 0 127 0" result="hardAlpha"/>
<feOffset/>
<feGaussianBlur stdDeviation="2"/>
<feComposite in2="hardAlpha" operator="out"/>
<feColorMatrix type="matrix" values="0 0 0 0 1 0 0 0 0 1 0 0 0 0 1 0 0 0 1 0"/>
<feBlend mode="normal" in2="BackgroundImageFix" result="effect1_dropShadow_417_9557"/>
<feBlend mode="normal" in="SourceGraphic" in2="effect1_dropShadow_417_9557" result="shape"/>
</filter>
<filter id="filter19_d_417_9557" x="58" y="18" width="10" height="12" filterUnits="userSpaceOnUse" color-interpolation-filters="sRGB">
<feFlood flood-opacity="0" result="BackgroundImageFix"/>
<feColorMatrix in="SourceAlpha" type="matrix" values="0 0 0 0 0 0 0 0 0 0 0 0 0 0 0 0 0 0 127 0" result="hardAlpha"/>
<feOffset/>
<feGaussianBlur stdDeviation="2"/>
<feComposite in2="hardAlpha" operator="out"/>
<feColorMatrix type="matrix" values="0 0 0 0 1 0 0 0 0 1 0 0 0 0 1 0 0 0 1 0"/>
<feBlend mode="normal" in2="BackgroundImageFix" result="effect1_dropShadow_417_9557"/>
<feBlend mode="normal" in="SourceGraphic" in2="effect1_dropShadow_417_9557" result="shape"/>
</filter>
<filter id="filter20_d_417_9557" x="259" y="43" width="11" height="11" filterUnits="userSpaceOnUse" color-interpolation-filters="sRGB">
<feFlood flood-opacity="0" result="BackgroundImageFix"/>
<feColorMatrix in="SourceAlpha" type="matrix" values="0 0 0 0 0 0 0 0 0 0 0 0 0 0 0 0 0 0 127 0" result="hardAlpha"/>
<feOffset/>
<feGaussianBlur stdDeviation="2"/>
<feComposite in2="hardAlpha" operator="out"/>
<feColorMatrix type="matrix" values="0 0 0 0 1 0 0 0 0 1 0 0 0 0 1 0 0 0 1 0"/>
<feBlend mode="normal" in2="BackgroundImageFix" result="effect1_dropShadow_417_9557"/>
<feBlend mode="normal" in="SourceGraphic" in2="effect1_dropShadow_417_9557" result="shape"/>
</filter>
<filter id="filter21_d_417_9557" x="306" y="79" width="11" height="11" filterUnits="userSpaceOnUse" color-interpolation-filters="sRGB">
<feFlood flood-opacity="0" result="BackgroundImageFix"/>
<feColorMatrix in="SourceAlpha" type="matrix" values="0 0 0 0 0 0 0 0 0 0 0 0 0 0 0 0 0 0 127 0" result="hardAlpha"/>
<feOffset/>
<feGaussianBlur stdDeviation="2"/>
<feComposite in2="hardAlpha" operator="out"/>
<feColorMatrix type="matrix" values="0 0 0 0 1 0 0 0 0 1 0 0 0 0 1 0 0 0 1 0"/>
<feBlend mode="normal" in2="BackgroundImageFix" result="effect1_dropShadow_417_9557"/>
<feBlend mode="normal" in="SourceGraphic" in2="effect1_dropShadow_417_9557" result="shape"/>
</filter>
<filter id="filter22_d_417_9557" x="57" y="71" width="10" height="11" filterUnits="userSpaceOnUse" color-interpolation-filters="sRGB">
<feFlood flood-opacity="0" result="BackgroundImageFix"/>
<feColorMatrix in="SourceAlpha" type="matrix" values="0 0 0 0 0 0 0 0 0 0 0 0 0 0 0 0 0 0 127 0" result="hardAlpha"/>
<feOffset/>
<feGaussianBlur stdDeviation="2"/>
<feComposite in2="hardAlpha" operator="out"/>
<feColorMatrix type="matrix" values="0 0 0 0 1 0 0 0 0 1 0 0 0 0 1 0 0 0 1 0"/>
<feBlend mode="normal" in2="BackgroundImageFix" result="effect1_dropShadow_417_9557"/>
<feBlend mode="normal" in="SourceGraphic" in2="effect1_dropShadow_417_9557" result="shape"/>
</filter>
<filter id="filter23_d_417_9557" x="127" y="22" width="12" height="12" filterUnits="userSpaceOnUse" color-interpolation-filters="sRGB">
<feFlood flood-opacity="0" result="BackgroundImageFix"/>
<feColorMatrix in="SourceAlpha" type="matrix" values="0 0 0 0 0 0 0 0 0 0 0 0 0 0 0 0 0 0 127 0" result="hardAlpha"/>
<feOffset/>
<feGaussianBlur stdDeviation="2"/>
<feComposite in2="hardAlpha" operator="out"/>
<feColorMatrix type="matrix" values="0 0 0 0 1 0 0 0 0 1 0 0 0 0 1 0 0 0 1 0"/>
<feBlend mode="normal" in2="BackgroundImageFix" result="effect1_dropShadow_417_9557"/>
<feBlend mode="normal" in="SourceGraphic" in2="effect1_dropShadow_417_9557" result="shape"/>
</filter>
<filter id="filter24_d_417_9557" x="63" y="0" width="12" height="12" filterUnits="userSpaceOnUse" color-interpolation-filters="sRGB">
<feFlood flood-opacity="0" result="BackgroundImageFix"/>
<feColorMatrix in="SourceAlpha" type="matrix" values="0 0 0 0 0 0 0 0 0 0 0 0 0 0 0 0 0 0 127 0" result="hardAlpha"/>
<feOffset/>
<feGaussianBlur stdDeviation="2"/>
<feComposite in2="hardAlpha" operator="out"/>
<feColorMatrix type="matrix" values="0 0 0 0 1 0 0 0 0 1 0 0 0 0 1 0 0 0 1 0"/>
<feBlend mode="normal" in2="BackgroundImageFix" result="effect1_dropShadow_417_9557"/>
<feBlend mode="normal" in="SourceGraphic" in2="effect1_dropShadow_417_9557" result="shape"/>
</filter>
<filter id="filter25_d_417_9557" x="264" y="24" width="12" height="13" filterUnits="userSpaceOnUse" color-interpolation-filters="sRGB">
<feFlood flood-opacity="0" result="BackgroundImageFix"/>
<feColorMatrix in="SourceAlpha" type="matrix" values="0 0 0 0 0 0 0 0 0 0 0 0 0 0 0 0 0 0 127 0" result="hardAlpha"/>
<feOffset/>
<feGaussianBlur stdDeviation="2"/>
<feComposite in2="hardAlpha" operator="out"/>
<feColorMatrix type="matrix" values="0 0 0 0 1 0 0 0 0 1 0 0 0 0 1 0 0 0 1 0"/>
<feBlend mode="normal" in2="BackgroundImageFix" result="effect1_dropShadow_417_9557"/>
<feBlend mode="normal" in="SourceGraphic" in2="effect1_dropShadow_417_9557" result="shape"/>
</filter>
<filter id="filter26_d_417_9557" x="311" y="60" width="12" height="13" filterUnits="userSpaceOnUse" color-interpolation-filters="sRGB">
<feFlood flood-opacity="0" result="BackgroundImageFix"/>
<feColorMatrix in="SourceAlpha" type="matrix" values="0 0 0 0 0 0 0 0 0 0 0 0 0 0 0 0 0 0 127 0" result="hardAlpha"/>
<feOffset/>
<feGaussianBlur stdDeviation="2"/>
<feComposite in2="hardAlpha" operator="out"/>
<feColorMatrix type="matrix" values="0 0 0 0 1 0 0 0 0 1 0 0 0 0 1 0 0 0 1 0"/>
<feBlend mode="normal" in2="BackgroundImageFix" result="effect1_dropShadow_417_9557"/>
<feBlend mode="normal" in="SourceGraphic" in2="effect1_dropShadow_417_9557" result="shape"/>
</filter>
<filter id="filter27_d_417_9557" x="91" y="31" width="14" height="14" filterUnits="userSpaceOnUse" color-interpolation-filters="sRGB">
<feFlood flood-opacity="0" result="BackgroundImageFix"/>
<feColorMatrix in="SourceAlpha" type="matrix" values="0 0 0 0 0 0 0 0 0 0 0 0 0 0 0 0 0 0 127 0" result="hardAlpha"/>
<feOffset/>
<feGaussianBlur stdDeviation="2"/>
<feComposite in2="hardAlpha" operator="out"/>
<feColorMatrix type="matrix" values="0 0 0 0 1 0 0 0 0 1 0 0 0 0 1 0 0 0 1 0"/>
<feBlend mode="normal" in2="BackgroundImageFix" result="effect1_dropShadow_417_9557"/>
<feBlend mode="normal" in="SourceGraphic" in2="effect1_dropShadow_417_9557" result="shape"/>
</filter>
<filter id="filter28_d_417_9557" x="228" y="33" width="14" height="14" filterUnits="userSpaceOnUse" color-interpolation-filters="sRGB">
<feFlood flood-opacity="0" result="BackgroundImageFix"/>
<feColorMatrix in="SourceAlpha" type="matrix" values="0 0 0 0 0 0 0 0 0 0 0 0 0 0 0 0 0 0 127 0" result="hardAlpha"/>
<feOffset/>
<feGaussianBlur stdDeviation="2"/>
<feComposite in2="hardAlpha" operator="out"/>
<feColorMatrix type="matrix" values="0 0 0 0 1 0 0 0 0 1 0 0 0 0 1 0 0 0 1 0"/>
<feBlend mode="normal" in2="BackgroundImageFix" result="effect1_dropShadow_417_9557"/>
<feBlend mode="normal" in="SourceGraphic" in2="effect1_dropShadow_417_9557" result="shape"/>
</filter>
<filter id="filter29_d_417_9557" x="275" y="69" width="14" height="15" filterUnits="userSpaceOnUse" color-interpolation-filters="sRGB">
<feFlood flood-opacity="0" result="BackgroundImageFix"/>
<feColorMatrix in="SourceAlpha" type="matrix" values="0 0 0 0 0 0 0 0 0 0 0 0 0 0 0 0 0 0 127 0" result="hardAlpha"/>
<feOffset/>
<feGaussianBlur stdDeviation="2"/>
<feComposite in2="hardAlpha" operator="out"/>
<feColorMatrix type="matrix" values="0 0 0 0 1 0 0 0 0 1 0 0 0 0 1 0 0 0 1 0"/>
<feBlend mode="normal" in2="BackgroundImageFix" result="effect1_dropShadow_417_9557"/>
<feBlend mode="normal" in="SourceGraphic" in2="effect1_dropShadow_417_9557" result="shape"/>
</filter>
<filter id="filter30_d_417_9557" x="198" y="72" width="14" height="14" filterUnits="userSpaceOnUse" color-interpolation-filters="sRGB">
<feFlood flood-opacity="0" result="BackgroundImageFix"/>
<feColorMatrix in="SourceAlpha" type="matrix" values="0 0 0 0 0 0 0 0 0 0 0 0 0 0 0 0 0 0 127 0" result="hardAlpha"/>
<feOffset/>
<feGaussianBlur stdDeviation="2"/>
<feComposite in2="hardAlpha" operator="out"/>
<feColorMatrix type="matrix" values="0 0 0 0 1 0 0 0 0 1 0 0 0 0 1 0 0 0 1 0"/>
<feBlend mode="normal" in2="BackgroundImageFix" result="effect1_dropShadow_417_9557"/>
<feBlend mode="normal" in="SourceGraphic" in2="effect1_dropShadow_417_9557" result="shape"/>
</filter>
<filter id="filter31_d_417_9557" x="155" y="35" width="12" height="13" filterUnits="userSpaceOnUse" color-interpolation-filters="sRGB">
<feFlood flood-opacity="0" result="BackgroundImageFix"/>
<feColorMatrix in="SourceAlpha" type="matrix" values="0 0 0 0 0 0 0 0 0 0 0 0 0 0 0 0 0 0 127 0" result="hardAlpha"/>
<feOffset/>
<feGaussianBlur stdDeviation="2"/>
<feComposite in2="hardAlpha" operator="out"/>
<feColorMatrix type="matrix" values="0 0 0 0 1 0 0 0 0 1 0 0 0 0 1 0 0 0 1 0"/>
<feBlend mode="normal" in2="BackgroundImageFix" result="effect1_dropShadow_417_9557"/>
<feBlend mode="normal" in="SourceGraphic" in2="effect1_dropShadow_417_9557" result="shape"/>
</filter>
<filter id="filter32_d_417_9557" x="90" y="13" width="13" height="13" filterUnits="userSpaceOnUse" color-interpolation-filters="sRGB">
<feFlood flood-opacity="0" result="BackgroundImageFix"/>
<feColorMatrix in="SourceAlpha" type="matrix" values="0 0 0 0 0 0 0 0 0 0 0 0 0 0 0 0 0 0 127 0" result="hardAlpha"/>
<feOffset/>
<feGaussianBlur stdDeviation="2"/>
<feComposite in2="hardAlpha" operator="out"/>
<feColorMatrix type="matrix" values="0 0 0 0 1 0 0 0 0 1 0 0 0 0 1 0 0 0 1 0"/>
<feBlend mode="normal" in2="BackgroundImageFix" result="effect1_dropShadow_417_9557"/>
<feBlend mode="normal" in="SourceGraphic" in2="effect1_dropShadow_417_9557" result="shape"/>
</filter>
<filter id="filter33_d_417_9557" x="291" y="38" width="13" height="13" filterUnits="userSpaceOnUse" color-interpolation-filters="sRGB">
<feFlood flood-opacity="0" result="BackgroundImageFix"/>
<feColorMatrix in="SourceAlpha" type="matrix" values="0 0 0 0 0 0 0 0 0 0 0 0 0 0 0 0 0 0 127 0" result="hardAlpha"/>
<feOffset/>
<feGaussianBlur stdDeviation="2"/>
<feComposite in2="hardAlpha" operator="out"/>
<feColorMatrix type="matrix" values="0 0 0 0 1 0 0 0 0 1 0 0 0 0 1 0 0 0 1 0"/>
<feBlend mode="normal" in2="BackgroundImageFix" result="effect1_dropShadow_417_9557"/>
<feBlend mode="normal" in="SourceGraphic" in2="effect1_dropShadow_417_9557" result="shape"/>
</filter>
<filter id="filter34_d_417_9557" x="339" y="74" width="12" height="13" filterUnits="userSpaceOnUse" color-interpolation-filters="sRGB">
<feFlood flood-opacity="0" result="BackgroundImageFix"/>
<feColorMatrix in="SourceAlpha" type="matrix" values="0 0 0 0 0 0 0 0 0 0 0 0 0 0 0 0 0 0 127 0" result="hardAlpha"/>
<feOffset/>
<feGaussianBlur stdDeviation="2"/>
<feComposite in2="hardAlpha" operator="out"/>
<feColorMatrix type="matrix" values="0 0 0 0 1 0 0 0 0 1 0 0 0 0 1 0 0 0 1 0"/>
<feBlend mode="normal" in2="BackgroundImageFix" result="effect1_dropShadow_417_9557"/>
<feBlend mode="normal" in="SourceGraphic" in2="effect1_dropShadow_417_9557" result="shape"/>
</filter>
<filter id="filter35_d_417_9557" x="89" y="66" width="13" height="13" filterUnits="userSpaceOnUse" color-interpolation-filters="sRGB">
<feFlood flood-opacity="0" result="BackgroundImageFix"/>
<feColorMatrix in="SourceAlpha" type="matrix" values="0 0 0 0 0 0 0 0 0 0 0 0 0 0 0 0 0 0 127 0" result="hardAlpha"/>
<feOffset/>
<feGaussianBlur stdDeviation="2"/>
<feComposite in2="hardAlpha" operator="out"/>
<feColorMatrix type="matrix" values="0 0 0 0 1 0 0 0 0 1 0 0 0 0 1 0 0 0 1 0"/>
<feBlend mode="normal" in2="BackgroundImageFix" result="effect1_dropShadow_417_9557"/>
<feBlend mode="normal" in="SourceGraphic" in2="effect1_dropShadow_417_9557" result="shape"/>
</filter>
<filter id="filter36_d_417_9557" x="0" y="35" width="14" height="15" filterUnits="userSpaceOnUse" color-interpolation-filters="sRGB">
<feFlood flood-opacity="0" result="BackgroundImageFix"/>
<feColorMatrix in="SourceAlpha" type="matrix" values="0 0 0 0 0 0 0 0 0 0 0 0 0 0 0 0 0 0 127 0" result="hardAlpha"/>
<feOffset/>
<feGaussianBlur stdDeviation="2"/>
<feComposite in2="hardAlpha" operator="out"/>
<feColorMatrix type="matrix" values="0 0 0 0 1 0 0 0 0 1 0 0 0 0 1 0 0 0 1 0"/>
<feBlend mode="normal" in2="BackgroundImageFix" result="effect1_dropShadow_417_9557"/>
<feBlend mode="normal" in="SourceGraphic" in2="effect1_dropShadow_417_9557" result="shape"/>
</filter>
<filter id="filter37_d_417_9557" x="109" y="83" width="14" height="14" filterUnits="userSpaceOnUse" color-interpolation-filters="sRGB">
<feFlood flood-opacity="0" result="BackgroundImageFix"/>
<feColorMatrix in="SourceAlpha" type="matrix" values="0 0 0 0 0 0 0 0 0 0 0 0 0 0 0 0 0 0 127 0" result="hardAlpha"/>
<feOffset/>
<feGaussianBlur stdDeviation="2"/>
<feComposite in2="hardAlpha" operator="out"/>
<feColorMatrix type="matrix" values="0 0 0 0 1 0 0 0 0 1 0 0 0 0 1 0 0 0 1 0"/>
<feBlend mode="normal" in2="BackgroundImageFix" result="effect1_dropShadow_417_9557"/>
<feBlend mode="normal" in="SourceGraphic" in2="effect1_dropShadow_417_9557" result="shape"/>
</filter>
<filter id="filter38_d_417_9557" x="196" y="35" width="14" height="14" filterUnits="userSpaceOnUse" color-interpolation-filters="sRGB">
<feFlood flood-opacity="0" result="BackgroundImageFix"/>
<feColorMatrix in="SourceAlpha" type="matrix" values="0 0 0 0 0 0 0 0 0 0 0 0 0 0 0 0 0 0 127 0" result="hardAlpha"/>
<feOffset/>
<feGaussianBlur stdDeviation="2"/>
<feComposite in2="hardAlpha" operator="out"/>
<feColorMatrix type="matrix" values="0 0 0 0 1 0 0 0 0 1 0 0 0 0 1 0 0 0 1 0"/>
<feBlend mode="normal" in2="BackgroundImageFix" result="effect1_dropShadow_417_9557"/>
<feBlend mode="normal" in="SourceGraphic" in2="effect1_dropShadow_417_9557" result="shape"/>
</filter>
<filter id="filter39_b_417_9557" x="0" y="49" width="351" height="64" filterUnits="userSpaceOnUse" color-interpolation-filters="sRGB">
<feFlood flood-opacity="0" result="BackgroundImageFix"/>
<feGaussianBlur in="BackgroundImageFix" stdDeviation="2"/>
<feComposite in2="SourceAlpha" operator="in" result="effect1_backgroundBlur_417_9557"/>
<feBlend mode="normal" in="SourceGraphic" in2="effect1_backgroundBlur_417_9557" result="shape"/>
</filter>
<linearGradient id="paint0_linear_417_9557" x1="4" y1="53" x2="347" y2="53" gradientUnits="userSpaceOnUse">
<stop stop-color="white" stop-opacity="0.3"/>
<stop offset="0.487953" stop-color="white"/>
<stop offset="1" stop-color="white" stop-opacity="0.3"/>
</linearGradient>
</defs>
</svg>
